<svg width="535" height="629" viewBox="0 0 535 629" fill="none" xmlns="http://www.w3.org/2000/svg">
<g id="Black">
	<rect stroke="#FFFFFF" stroke-miterlimit="10" width="535" height="629"/>
</g>
<g clip-path="url(#clip0_5_972)" width="535" height="629" id="Color">
<rect width="535" height="629" fill="white"/>
<path d="M138.21 287.53C145.84 288.27 153.13 288.65 160.31 289.73C175.651 292.119 190.395 297.413 203.75 305.33C208.35 308.02 212.6 308 216.89 305.33C218.28 304.47 218.89 302.01 220.26 301.49C225.034 299.709 229.921 298.249 234.89 297.12C237.33 296.57 240.01 297.03 243.65 297.03L236.74 292.27C236.96 291.81 237.18 291.36 237.39 290.9C244.08 290.43 250.94 290.9 256.47 294.9C263.469 299.937 269.987 305.611 275.94 311.85C284.81 321.25 294.07 329.94 307.42 331.47C313.988 332.141 320.624 331.647 327.02 330.01C330.89 329.01 334.02 325.14 338.38 321.89C328.27 317.32 319.62 318.74 310.14 320.78C314.92 309.38 325.74 312.01 334.14 308.48L309.97 302.25C315.14 296.55 325.39 295.25 351.48 296.66L344.38 290.35L345.21 289.19C347.55 290.67 349.92 292.1 352.21 293.65C354.31 295.07 355.79 296.65 359.12 295.38C361.29 294.57 364.7 296.61 367.38 297.75C369.16 298.51 370.64 299.95 371.99 299.75C379.13 297.34 386.12 294.13 393.45 292.75C402.65 290.98 405.84 293.82 407.84 302.89C409.672 311.564 409.408 320.549 407.07 329.1C406.71 330.53 406.36 331.96 405.64 334.89C408.39 332.64 410.14 331.3 411.78 329.89C419.78 322.84 428.69 317.5 439.08 314.89C447.39 312.78 451.94 315.4 453.69 323.79C454.442 327.882 454.751 332.042 454.61 336.2C454.56 339.25 455.68 340.65 458.49 341.57C463.69 343.29 468.78 345.35 473.9 347.31C474.11 347.39 474.17 347.85 474.79 349.21L465.08 346.92C469.24 355.56 480.08 358.14 481.86 368.56L472.62 364.73L483.69 379.53L482.02 380.89L473.67 371.08C471.67 381.03 477.32 391.79 469.09 400.77C468.394 399.349 467.786 397.886 467.27 396.39C464.74 387.07 458.86 380.19 451.06 374.98C449.06 373.63 445.99 373.86 443.41 373.37C443.16 375.88 442.1 378.64 442.78 380.86C446.2 391.95 453.63 399.86 463.84 405.05C477.258 411.898 491.839 416.175 506.83 417.66L504.02 421.24C510.44 424.62 517.3 427.47 523.3 431.58C529.45 435.78 532.8 442.36 534.91 450.63L522.91 443.71C525.91 450.89 529.82 456.88 526.57 464.41L523.97 462.22C522.39 466.49 521.52 471.22 519.04 474.89C516.56 478.56 512.61 480.79 508.36 484.49C507.9 481.09 507.65 479.24 507.24 476.24C501.75 485.94 496.24 494.01 499.24 505.53C503.18 520.26 507.15 535.28 508.29 550.39C510.48 579.39 493.59 601.9 466.94 607.64C450.58 611.16 434 610.89 419.65 601.38C412.88 596.89 408.47 597.75 402.04 601.01C380.55 611.94 357.53 613.96 333.89 610.89C332.57 610.72 331.22 610.66 329.89 610.36C319.27 607.92 310.65 610.24 301.52 617.22C283.6 630.92 262.81 630.6 241.86 624.68C222.05 619.08 204.36 609.26 187.94 597.09C185.812 595.401 183.37 594.151 180.756 593.411C178.142 592.671 175.407 592.457 172.71 592.78C157.51 594.18 142.96 590.29 128.61 585.78C112.523 580.895 97.2156 573.739 83.15 564.53C80.9624 563.102 78.3793 562.402 75.77 562.53C54.6 564.38 38.11 555.91 25.19 539.79C2.64 511.6 -4.71 480.03 2.91 444.53C7.83 421.62 11.4 398.4 15.2 375.25C18.82 353.25 22.57 331.25 25.14 309.11C28.69 278.44 28.31 247.59 27.38 216.74C26.8 197.43 27.45 178.08 27.25 158.74C26.9 124.74 38.15 94.7901 58.36 67.8401C84.9 32.4601 119.36 9.59011 163.36 2.63011C214.5 -5.44989 261.54 4.32011 301.11 38.9601C338.11 71.3201 352.3 112.37 341.24 160.84C337.24 178.49 327.88 193.7 315 206.59C311.36 210.23 308 214.16 304.28 217.7C296.77 224.85 293.05 225.05 284.69 218.79C271.41 208.85 257.35 200.35 241.33 195.6C228.11 191.68 214.63 189.4 200.92 192.49C182.09 196.74 170.31 209.4 162.92 226.42C154.47 245.95 146.64 265.75 138.55 285.42C138.379 286.113 138.265 286.819 138.21 287.53V287.53ZM167.03 121.08C167.42 135.27 171.46 151.79 182.81 165.6C192.36 177.22 203.75 185.6 219.99 186.02C227.82 186.21 235.78 188.39 243.36 190.71C260.12 195.85 274.61 205.34 288.44 215.88C293.27 219.55 295.31 219.43 299.73 215.27C302.73 212.41 305.73 209.51 308.57 206.45C329.17 184.08 340.1 157.69 337.8 127.28C334.51 83.9901 312.67 51.2801 276.8 27.5801C274.551 26.1955 271.98 25.4201 269.34 25.3301C256.165 24.757 243.003 26.7226 230.57 31.1201C211.972 37.697 195.873 49.8819 184.492 65.9945C173.112 82.1071 167.011 101.354 167.03 121.08V121.08ZM298.37 382.53C297.58 379.38 296.96 377.34 296.57 375.25C293.663 360.161 287.522 345.88 278.57 333.39C273.14 325.65 266.33 319.75 256.9 317.55C233.81 312.16 207.35 329 203.71 352.33C199 382.61 202.1 412.22 215.19 440.23C234.94 482.47 267.53 510.99 310.68 527.71C358.45 546.21 405.82 547.32 452.27 523.28C470.18 514.02 486.76 503.01 498.11 485.69C499.2 484.03 500.23 482.3 501.17 480.54C510.17 463.64 507.78 452.3 492.72 440.37C476.82 427.76 459.08 425.14 439.95 430.84C417.3 437.58 395.02 437.84 373.16 427.84C372.203 427.552 371.217 427.374 370.22 427.31V430.18C370.22 442.31 366.92 446.27 355.1 449.48C344.1 452.48 333.43 451.42 322.67 447.1C319.76 454.87 317.11 462.38 314.1 469.75C312.36 474.02 313.32 476.5 317.54 478.47C352.6 494.91 388.01 496.54 423.93 481.42C439.44 474.89 449.87 463.18 457.77 448.79C459.68 445.3 458.86 443.65 454.89 443.05C451.31 442.51 447.81 441.49 444.27 440.68C462.67 435.88 479.55 449.48 477.72 460.46L470.99 453.18C470.45 455.56 470.1 456.99 469.81 458.44C464.74 483.89 450.22 502.02 427.24 513.69C404.72 525.12 380.88 527.29 356.24 524.33C320.48 520.03 288.01 508.17 261.18 483.28C235.12 459.09 220.67 429.95 223.39 393.62C224.39 380.33 228.59 368.19 237.39 357.97C239.82 355.15 243.02 352.97 246.24 350.21L241.64 348.21C255.3 343.67 270.27 351.38 271.09 363.39C269.16 361.24 267.56 359.39 265.86 357.57C258.59 349.87 251.86 351.38 248.58 361.5C245.485 370.892 244.936 380.937 246.99 390.61C252.49 416.96 265.64 438.93 285.7 456.67C292.81 462.95 300.7 468.29 308.79 474.45C312.72 464.37 316.2 455.74 319.35 446.99C319.82 445.68 319.17 443.5 318.29 442.23C313.465 435.402 310.354 427.513 309.22 419.23C307.75 408.23 309.56 404.83 319.71 400C319.9 399.9 319.94 399.48 319.71 400.09L300.24 379.45L298.37 382.53ZM205.16 335.87C205.637 335.487 206.085 335.07 206.5 334.62C215.15 323.19 226.84 316.77 240.61 313.62C258.3 309.56 270.61 314.38 280.44 329.62C282.31 332.375 284 335.248 285.5 338.22C291.71 351.1 297.74 364.07 303.9 376.97C307.72 384.97 312.4 389.97 318.11 392.57C318.11 392.26 318.11 391.88 317.97 391.67C311.34 383.04 310.16 373.61 315.03 364C320.22 353.75 329.38 348.95 340.6 348.33C355.03 347.53 364.38 353.98 366.13 365.91C367.56 375.63 365.32 384.64 358.3 391.72C354.43 395.62 349.62 398.58 345.13 402.04C353.56 405.88 360.49 411.93 366.27 419.47C367.756 421.488 369.765 423.061 372.08 424.02C379.72 426.74 387.39 429.66 395.3 431.24C409.88 434.15 424.06 430.92 438.14 427.04C460.14 420.98 480.36 424.04 497.72 439.89C504.46 446.06 508.99 453.32 509.72 462.73C509.98 466.33 511.03 469.88 511.72 473.45L512.81 473.36L514.22 460.86H515.48L516.97 472.02C521.53 462.57 519.13 454.24 516.83 445.2L521.73 449.34L522.89 448.02L504.75 431.16C504.93 430.76 505.1 430.37 505.28 429.98L524.38 439.31C513.53 427.12 498.58 424.67 483.8 421.16L492.23 419.86C491.701 419.545 491.146 419.277 490.57 419.06C489.44 418.77 488.3 418.55 487.15 418.32C474.86 415.88 463.64 411.07 453.95 403.03C446.67 396.98 440.41 390.18 438.85 380.26C437.29 370.34 442.5 365.82 451.97 369.37C459.03 372.02 463.77 377.31 466.97 383.99C468.08 386.3 468.88 388.77 470.14 391.99C471.82 382.84 467.23 376.07 465.14 368.63L470.06 374.42C468 363.96 460.83 359.42 453.87 354.42C460.17 353.07 464.87 357.92 470.81 358.83C462.04 351.27 451.08 350.51 440.81 348.05C440.92 347.45 441.04 346.85 441.15 346.26L461.05 348.26C458.486 346.062 455.504 344.403 452.285 343.382C449.065 342.362 445.673 342.001 442.31 342.32C431.86 343.06 421.45 344.39 411.03 345.42C409.458 345.5 407.882 345.5 406.31 345.42L406.02 343.87L422.96 334.09C412.54 334.55 404.04 339.43 395.96 345.61C393.45 335.86 391.18 326.61 388.67 317.52C387.4 312.89 384.39 309.95 378.91 309.35C380.16 314.5 381.3 319.18 382.44 323.86L380.73 324.36C377.56 316.45 375.51 307.82 367.94 302.31C368.94 306.25 369.78 309.76 370.65 313.31L369.14 313.79C360.82 306.52 352.79 298.66 339.31 299.49L350.11 306.04L349.17 307.57C340.92 303.29 332.41 300.3 322.07 301.64C330.07 304.38 338.86 303.49 343.75 311.98L323.38 313.51L323.52 314.76C327.92 315.41 332.4 315.76 336.7 316.76C341.7 317.98 343.05 322.16 339.39 325.76C336.25 328.82 332.57 331.84 328.56 333.41C312.03 339.87 297.14 336.1 284.14 324.54C276.68 317.91 269.73 310.69 262.36 303.95C259.58 301.4 256.26 299.45 253.18 297.22L252.96 297.8L258.22 305.58C249.56 303.05 241.9 299.32 233.86 300.58L243.97 304.86C243.81 305.36 243.65 305.86 243.48 306.36C240.86 306.71 238.22 306.92 235.64 307.45C228.32 308.94 220.94 310.25 213.76 312.25C209.32 313.48 205.59 316.25 204.14 321.89C217.22 312.61 217.3 312.58 222.88 313.33C216.51 320.41 206.61 324.8 205.16 335.88V335.87ZM199.99 186.46C197.7 184.82 195.81 183.56 193.99 182.17C174.61 167 162.72 147.63 162.37 122.57C162.017 99.619 169.659 77.2598 183.984 59.3252C198.31 41.3906 218.428 28.9974 240.89 24.2701C248.89 22.5601 257.11 22.1801 265.74 21.1301C263.96 20.2201 262.57 19.4001 261.09 18.7601C234.83 7.53012 207.22 3.18011 178.73 4.24011C176.597 4.4507 174.532 5.10831 172.67 6.17011C153.73 15.8601 141.1 31.6601 132.32 50.3501C108.99 100 127.53 158.77 174.74 186.84C183 191.75 191.07 191.15 199.99 186.47V186.46ZM164.56 6.36011C163.721 6.28995 162.879 6.28995 162.04 6.36011C136.53 11.6901 113.72 22.9401 92.84 38.2601C90.2158 40.2994 87.9974 42.8128 86.3 45.6701C64.14 81.5301 67.67 132.18 94.91 167.17C109.46 185.86 127.15 200.24 150.91 205.73C164.91 208.96 172.2 206.3 180.28 194.83C144.34 175.75 122.64 146.59 119.38 105.56C116.12 64.6901 131.33 31.5301 164.56 6.37011V6.36011ZM197.56 319C192.83 320.23 186.93 321.68 181.09 323.29C156.09 330.18 132.4 339.88 113.27 357.9C72.83 396.01 53.83 442.65 59.42 498.44C61.42 518.86 68.31 537.64 80.96 554.04C84.6248 558.971 89.5315 562.843 95.18 565.26C92.76 558.65 90 552.73 88.39 546.51C76.17 499.34 83.83 455.09 108.83 413.62C128.27 381.31 155.83 359.69 192.89 350.96C200.77 349.1 203.84 342.66 201.23 334.8C199.64 330.12 198.95 325.15 197.58 319.01L197.56 319ZM75.29 558C73.8 555.25 72.53 552.92 71.29 550.58C70.05 548.24 68.51 545.65 67.29 543.1C54.83 517.3 51.66 490.04 55.21 461.83C61.1033 414.89 82.7367 376.89 120.11 347.83C142.01 330.83 167.56 321.98 194.35 316.16C198.51 315.26 202.48 313.5 206.54 312.16C195.63 305.3 185.45 299.07 172.54 300.35C152.75 302.186 133.619 308.414 116.54 318.58C78.84 341.05 54.54 374.3 39.24 414.75C28.24 443.86 24.88 473.5 34.24 503.75C39.69 521.38 46.24 538.43 60.61 551.09C64.68 554.67 68.74 558.12 75.31 558.05L75.29 558ZM119.55 576C119.19 574.4 119 573.29 118.68 572.23C106.44 531.61 109.33 492.36 129.01 454.52C143.56 426.52 165.26 405.92 193.08 391.43C194.78 390.54 197.08 388.66 197.17 387.18C197.52 376.05 197.36 364.91 197.36 353.45C195.94 353.75 194.01 354.1 192.11 354.57C166.43 361.07 145.24 374.79 127.83 394.53C105.65 419.62 93.19 449.13 88.54 482.05C84.84 508.25 86.86 533.76 97.71 558.38C101.99 568.19 108.73 573.8 119.57 576.07L119.55 576ZM163.55 212.74C126.03 206.46 98.55 186.98 81.55 153.48C64.73 120.48 64.33 86.5401 77.61 51.5901C77.0291 51.8753 76.4737 52.2099 75.95 52.5901C54.29 74.5901 41.38 101.19 35.57 131.34C35.0577 134.13 35.1223 136.996 35.76 139.76C42.53 168.33 56.18 192.76 79.68 210.97C96.78 224.23 115.38 233.5 137.89 232.2C148.89 231.57 158.3 228.95 161.68 216.75C162.212 215.395 162.837 214.079 163.55 212.81V212.74ZM147.7 585.05C147.24 582.25 147.01 580.64 146.7 579.05C142.95 559.05 141.86 539.05 145.78 519.05C152.48 484.7 171.85 458.71 199.78 438.67C204.56 435.24 206.11 432.4 204.46 426.61C201.46 415.98 199.33 405.08 196.68 393.61C193.26 395.29 190.39 396.51 187.68 398.05C175.65 404.903 164.812 413.664 155.59 423.99C115.977 468.183 105.587 518.42 124.42 574.7C124.99 576.42 126.24 578.7 127.71 579.21C133.94 581.34 140.37 582.95 147.7 585.05ZM57.36 556.23C51.29 547.16 43.87 537.92 38.45 527.63C22.16 496.72 22.05 464.04 29.92 430.86C38.17 396.05 56.09 366.7 81.19 341.56C99.96 322.77 121.54 308.4 147.49 301.49C154.59 299.59 161.9 298.49 170.12 296.78C137.12 289.31 108.33 296.17 83.37 316.78C44.42 349.01 20.98 391.35 8.37 439.58C-0.169996 472.53 7.1 503.43 26.23 531.34C34.24 543.02 44.67 552.14 57.36 556.23ZM207.46 438.04C204.97 439.52 203.05 440.52 201.28 441.73C181.293 455.253 165.784 474.421 156.73 496.79C145.757 523.243 144.057 550.277 151.63 577.89C152.51 581.06 154.98 585.25 157.63 586.17C163 588.02 169.03 587.92 176.1 588.79C172.82 584.71 170.55 581.88 168.27 579.06C165.99 576.24 163.74 573.5 161.47 570.72C161.74 570.32 162 569.92 162.26 569.52C163.319 569.849 164.328 570.32 165.26 570.92C166.664 572.31 167.98 573.786 169.2 575.34C166.48 528.01 187.2 494.79 225.52 470.94L207.46 438.04ZM33.53 150.94C33.2249 151.832 32.9973 152.749 32.85 153.68C32.85 172.51 32.85 191.35 33.1 210.18C33.2543 212.158 33.9005 214.066 34.98 215.73C48.09 237.96 66.85 253.02 91.88 259.84C107.81 264.19 123.75 265.15 139.38 258.51C141.46 257.62 144.17 256.51 145.02 254.72C148.02 248.39 150.4 241.72 153.43 234.14C138.9 238.63 125.84 237.81 112.85 233.65C79.67 223.04 57.58 200.19 42.31 169.83C39.35 163.95 36.75 157.9 33.53 150.94ZM256.14 503.1L225.31 475.4C191.55 494.4 172.47 528.71 173.31 568.5C173.44 574.92 173.67 581.08 179.91 585.28C185.01 588.71 189.65 592.8 195.53 597.4C192.52 550.15 212.02 518.83 256.14 503.1ZM33 221.64C33 234.33 32.82 246.48 33.14 258.64C33.3012 261.568 34.3865 264.368 36.24 266.64C50.6 283.48 69.04 293.64 90.59 297.81C95.59 298.81 101.34 297.17 106.59 296.05C111.59 294.99 116.25 292.65 121.22 291.56C126.38 290.44 131.01 288.44 133.49 283.85C136.97 277.42 139.66 270.56 142.72 263.85C95.47 276.35 61.11 258.21 33 221.64ZM278.57 528.29C273.18 531.66 269.07 534.92 264.44 536.99C254.44 541.46 251.08 548.71 250.44 559.57C248.84 585.39 259.75 607.12 281.72 617.71C283.72 618.71 287.07 619.44 288.63 618.45C297.81 612.63 306.63 606.26 316.37 599.53C283.89 586.16 273.24 561.94 278.57 528.29ZM281.66 520.8C277.55 517.95 273.54 515.96 270.57 512.96C263.44 505.74 255.81 505.96 247.27 509.81C209.98 526.81 195.75 559.49 200.27 596.51C200.46 598.02 201.17 600.08 202.27 600.77C208.96 604.83 215.85 608.56 223.43 612.77C222.13 604.63 220.83 597.6 219.83 590.53C217.02 571.77 224.32 556.16 240.35 546.33C243.89 544.15 247.42 541.94 250.91 539.68C252.06 538.95 253.09 538.04 254.91 536.62C242.91 535.12 233.72 540.62 223.31 544.38C226.94 540.612 231.287 537.609 236.096 535.548C240.905 533.487 246.078 532.41 251.31 532.38C256.111 532.227 260.848 531.239 265.31 529.46C270.83 527.25 275.83 523.92 281.66 520.8ZM412.66 578.64C412.16 589.46 418.72 597.97 429.75 601.38C451.64 608.16 477.6 594.38 486.49 571.38C492.09 556.87 490.49 543.66 479.62 532.08C476.77 529.08 473.85 526.08 470.76 523.29C469.68 522.29 467.96 522.09 466.53 521.53C466.48 523.03 466.08 524.63 466.45 526.01C471.13 543.29 463.17 564.96 448.32 575.01C437.21 582.4 425.33 582.96 412.63 578.64H412.66ZM234.53 556.72L233.92 556.3C233.335 556.768 232.796 557.291 232.31 557.86C231.1 559.456 229.992 561.126 228.99 562.86C219.94 579.54 222.51 596.27 229.06 612.91C229.874 614.325 231.215 615.36 232.79 615.79C240.44 618.01 248.07 620.69 255.91 621.79C262.91 622.79 270.23 622 277.41 622C265.85 613.28 256.41 603.81 251.2 590.57C246.11 577.68 245.88 564.17 246.08 549.48L232.95 561.88L232.46 561.39L234.53 556.72ZM309.4 534C304.79 548.5 307.05 561.5 315.51 568.84C321.11 573.7 327.51 576.64 336.12 575.5C330.96 569.99 324.03 566.56 325.54 557.11C330.85 564.57 334.54 572.83 345.12 569.42C356.54 565.75 352.12 555.63 353.98 547.55C359.3 554.91 357.85 562.38 354.98 569.97C372.28 572.35 370.61 561.16 369.32 550.19C374.98 557.36 375.32 564.19 370.52 571.36C377.07 570.97 379.9 568.36 379.52 562.75C379.148 558.957 378.353 555.217 377.15 551.6C376.08 548.03 373.36 546.82 369.58 546.33C357.4 544.77 345.21 543.06 333.17 540.69C325.23 539.13 317.54 536.34 309.4 534ZM343.06 446.12L343.13 446.88C347.88 446.3 352.77 446.26 357.35 445.04C366.5 442.6 369.63 436.35 366.35 427.51C361.35 414.31 351.25 406.84 338.08 403.16C331.51 401.18 324.464 401.472 318.08 403.99C313.52 405.82 311.52 409.09 312.82 413.85C314.75 420.85 316.82 427.85 319.11 434.78C321.59 442.08 327.42 445.26 334.68 446.07C337.47 446.239 340.268 446.256 343.06 446.12V446.12ZM32.83 269.45C32.21 277.23 32.67 284.07 30.95 290.32C27.1 304.32 34.34 312.21 44.81 318.87C45.93 319.59 47.02 320.35 48.18 321.02C61.04 328.45 61.63 328.43 72.8 318.81C78.67 313.81 84.44 308.59 90.99 302.81C67.63 298.07 49.15 286.68 32.83 269.45ZM332.22 581.45C328.3 580.1 325.29 579.18 322.38 578.03C309.3 572.84 302.98 563.58 303.26 549.54C303.35 544.74 304.33 539.97 304.68 535.16C304.77 533.94 304.34 531.96 303.52 531.51C299.307 529.164 294.936 527.112 290.44 525.37C286.03 523.75 282.98 525.7 282.1 530.37C281.456 533.976 281.012 537.615 280.77 541.27C278.87 565.79 291.92 585.76 315.23 593.66C317.07 594.28 320.14 594.03 321.48 592.87C325.21 589.64 328.33 585.7 332.22 581.46V581.45ZM344.22 353.09C331.3 352.93 321.04 359.04 317.38 367.51C313.19 377.21 317.02 388.93 326.52 395.51C334.26 400.84 345.02 399.65 352.6 392.62C360.89 384.93 364.74 372.94 361.33 364.76C357.71 356.04 350.37 353.36 344.23 353.1L344.22 353.09ZM441.49 552.83L441.32 554.58L447.46 558.58C447.19 559.16 446.91 559.73 446.64 560.31L429.49 563.94C430.17 566.1 430.7 567.75 431.44 570.08H411.36C414.48 576.61 421.96 579.48 430.36 578.08C453.97 574.19 469.72 547.65 462.09 525.72L402.32 546.72C402.12 557.72 409.17 565.18 417.8 561.83C413.8 557.53 409.98 553.18 411.92 546.02C415.43 552.43 417.3 560.22 426.53 559.02C429.87 558.58 433.47 558.08 434.53 553.71C430.29 551.81 425.28 551.11 424.13 545.24C436.51 552.73 448.27 549.69 447.47 532.69C449.77 535.96 451.75 538.75 453.7 541.57C457.06 546.42 456.24 548.46 450.38 550.11C447.36 550.97 444.43 551.93 441.49 552.83ZM406.7 582.29C384.48 592.41 361.25 592.67 337.62 589.87C334.908 589.574 332.185 590.318 330 591.95C326.1 595.44 322.95 599.78 319.09 604.23C321.39 604.7 322.99 605.08 324.61 605.35C351.31 609.87 376.91 605.5 401.82 595.71C410.9 592.14 410.9 592.13 407.51 583.02C407.46 582.88 407.28 582.8 406.7 582.29ZM281.48 493.29C291.01 497.91 299.9 502.39 308.98 506.46C310.34 507.07 313.45 506.36 314.23 505.22C317.95 499.76 321.14 493.95 324.73 487.9L293.98 470.53L281.48 493.29ZM359.83 496.59C349.58 494.09 339.83 491.66 329.99 489.44C329.385 489.43 328.786 489.564 328.243 489.832C327.701 490.1 327.23 490.494 326.87 490.98C323.05 497.15 319.44 503.44 315.53 510.08C326.02 512.72 335.96 515.31 345.96 517.62C347.17 517.9 349.45 517.06 349.96 516.07C353.34 509.84 356.39 503.42 359.83 496.59ZM29.17 312.72C28.17 322.34 27.02 332.19 26.05 342.05C25.998 342.618 26.0596 343.191 26.2313 343.736C26.403 344.28 26.6813 344.785 27.05 345.22C31.15 349.05 35.42 352.71 39.82 356.6L57.92 332.43L29.17 312.72ZM349.44 574.88C347.58 577.02 346.44 578.43 345.19 579.75C343.94 581.07 342.83 582.03 341.35 583.53L339 578.26L335.12 585.03C358.43 588.96 380.73 588.03 402.49 579.9C407.03 578.21 408.56 574.25 406.76 568.9C405.22 564.35 401.47 562.35 397.02 563.67C395.166 564.387 393.232 564.874 391.26 565.12C389.361 565.135 387.497 565.627 385.837 566.549C384.177 567.471 382.775 568.796 381.76 570.4C377.29 576.65 370.36 579.32 363 582.54V576.07C361.314 577.69 359.52 579.193 357.63 580.57C355.792 581.54 353.883 582.369 351.92 583.05C351.34 581.41 350.74 579.79 350.2 578.14C349.96 577.36 349.83 576.53 349.44 574.88ZM394.12 496.28C384.12 496.28 374.84 496.2 365.57 496.38C364.872 496.484 364.206 496.741 363.619 497.134C363.033 497.526 362.541 498.044 362.18 498.65C358.82 505.27 355.72 512.02 351.81 520.26C362.53 520.26 372.12 520.32 381.7 520.18C382.327 520.131 382.935 519.939 383.477 519.621C384.019 519.302 384.482 518.864 384.83 518.34C387.97 511.25 390.89 504.05 394.12 496.28ZM423.89 486.61C414.97 489.27 407.09 491.61 399.25 494.03C398.787 494.209 398.364 494.478 398.006 494.822C397.647 495.165 397.36 495.576 397.16 496.03C394.07 503.95 391.11 511.92 387.66 521.03C397.77 518.28 406.53 515.94 415.26 513.44C415.78 513.246 416.253 512.942 416.645 512.549C417.036 512.155 417.338 511.681 417.53 511.16C419.65 503.36 421.6 495.53 423.89 486.61ZM279.18 491.61L291.52 468.4L272.7 451.33C268.7 458.33 264.7 465.02 261.06 471.87C260.48 472.97 260.74 475.43 261.59 476.21C267.17 481.39 273.01 486.29 279.18 491.63V491.61ZM472.18 516.56L504.33 554.53L506.45 553.68C504.88 544.24 504.03 534.6 501.45 525.43C499.35 517.79 492.62 513.7 485.31 511.06C479.43 508.87 477.05 514.62 472.17 516.58L472.18 516.56ZM256.68 429.63C251.95 436.07 247.68 441.78 243.56 447.63C242.79 448.72 242.02 450.83 242.56 451.63C246.85 458.41 251.44 465 256.29 472.16C261.02 464.78 265.29 458.44 269.15 451.83C269.557 450.934 269.755 449.956 269.727 448.972C269.699 447.987 269.447 447.022 268.99 446.15C265.27 440.66 261.08 435.47 256.68 429.63ZM244.9 403.83C240.11 409.27 235.73 414.04 231.62 419.04C231.13 419.659 230.777 420.375 230.584 421.14C230.391 421.905 230.362 422.703 230.5 423.48C233.1 431.48 236.03 439.33 239.22 448.25C244.57 441.05 249.4 434.77 253.92 428.25C254.66 427.18 254.51 424.93 253.92 423.59C251.2 417.2 248.17 410.91 244.9 403.83V403.83ZM493.39 547.3C496.21 570.21 486.39 586.97 468.16 600.19C469.04 600.299 469.93 600.299 470.81 600.19C484.57 595.25 495.07 586.49 501.25 573.13C505.12 564.74 501.64 553.65 493.39 547.3ZM398.14 338.71C398.921 338.245 399.661 337.713 400.35 337.12C400.802 336.644 401.144 336.074 401.35 335.45C404.78 323.45 406.02 311.37 402.79 299.11C401.93 295.86 400 295.11 397.26 296.94C393.26 299.63 389.43 302.47 385.13 305.53C397.06 313.59 394.6 326.93 398.14 338.71ZM421.56 511.14C427.81 507.32 432.93 504.31 437.9 501.07C438.981 500.291 439.73 499.135 440 497.83C441.18 490.36 442.15 482.83 443.33 474.33C437.82 477.77 433.15 480.6 428.6 483.6C427.466 484.262 426.602 485.304 426.16 486.54C424.57 494.29 423.22 502.08 421.56 511.14ZM241.15 382.53C238.359 383.888 235.648 385.404 233.03 387.07C231.12 388.42 228.65 390.18 228.2 392.16C226.4 400.1 226.97 408.16 228.93 416.16C244.32 405.95 247.18 398.09 241.15 382.53ZM444.54 494.65C457.07 487.88 466.13 467.72 457.92 455.33C455.14 458.95 452.28 462.33 449.77 466.03C448.12 468.43 446.09 471.03 445.77 473.78C444.89 480.53 444.9 487.33 444.54 494.65ZM24.54 349.8C22.01 366.26 19.6 381.88 17.19 397.5L18.26 397.86C24.36 385.59 30.45 373.32 36.64 360.86L24.54 349.8ZM423.01 326.66L423.39 328.08C429.7 328.59 436.22 328.47 441.65 333.74L426.65 337.81C442.14 339.96 442.86 339.46 445.44 325.58C445.66 324.44 445.93 323.32 446.14 322.18C446.74 318.95 445.61 316.92 442.2 318.26C435.66 320.82 429.35 323.84 422.96 326.66H423.01ZM379.32 546.66C380.69 550.53 381.79 553.8 383.01 557.03C384.64 561.37 389.06 562.38 395.57 560.5C400.79 558.99 398.03 555.73 397.57 552.98C397.21 550.9 396.57 548.86 396.02 546.66H379.32ZM243.68 361.41C240.9 363.14 237.76 363.99 236.68 365.96C233.43 371.96 230.98 378.43 228.03 385.14C240.52 382.23 243.04 378.44 243.68 361.41ZM485.2 507.32L497.58 512.97C496 507.74 494.76 503.61 493.58 499.57L485.2 507.32ZM463.7 464.98H464.85C465.67 461.64 466.66 458.33 467.29 454.98C468.29 449.72 467.29 448.59 461.22 447.49L463.7 464.98ZM451.33 337.98C450.94 332.8 450.6 328.15 450.25 323.5L449.52 323.43C448.44 328.17 447.37 332.91 446.22 337.98H451.33ZM389.2 297.1L375.06 303.72C382.42 305.19 385.92 301.37 389.2 297.07V297.1ZM241.48 358.1C246.41 358.32 248.95 355.75 249.48 351.03L241.48 358.1Z" fill="black"/>
<path d="M167.03 121.08C167.002 101.347 173.1 82.0913 184.481 65.9707C195.862 49.8502 211.966 37.6592 230.57 31.0801C243.003 26.6826 256.165 24.7169 269.34 25.2901C271.98 25.3801 274.551 26.1555 276.8 27.5401C312.67 51.2301 334.51 83.9501 337.8 127.24C340.1 157.65 329.17 184.04 308.57 206.41C305.75 209.47 302.75 212.41 299.73 215.23C295.31 219.39 293.27 219.51 288.44 215.84C274.61 205.3 260.12 195.84 243.36 190.67C235.78 188.35 227.82 186.17 219.99 185.98C203.75 185.59 192.36 177.18 182.81 165.56C171.46 151.79 167.42 135.27 167.03 121.08Z" fill="white"/>
<path d="M298.37 382.53L300.14 379.43L319.61 400.07C319.86 399.46 319.82 399.88 319.61 399.98C309.46 404.81 307.61 408.17 309.12 419.21C310.254 427.493 313.365 435.382 318.19 442.21C319.07 443.48 319.72 445.66 319.25 446.97C316.1 455.72 312.62 464.35 308.69 474.43C300.63 468.27 292.69 462.93 285.6 456.65C265.54 438.91 252.39 416.94 246.89 390.59C244.851 380.931 245.407 370.905 248.5 361.53C251.77 351.41 258.5 349.9 265.78 357.6C267.48 359.39 269.08 361.27 271.01 363.42C270.19 351.42 255.22 343.7 241.56 348.24L246.16 350.24C242.94 353.02 239.74 355.18 237.31 358C228.53 368.22 224.31 380.36 223.31 393.65C220.59 429.98 235.04 459.12 261.1 483.31C287.93 508.2 320.4 520.06 356.16 524.36C380.83 527.36 404.67 525.15 427.16 513.72C450.16 502.05 464.66 483.92 469.73 458.47C470.02 457.02 470.37 455.59 470.91 453.21L477.64 460.49C479.47 449.49 462.59 435.91 444.19 440.71C447.73 441.52 451.19 442.54 454.81 443.08C458.81 443.68 459.6 445.33 457.69 448.82C449.79 463.21 439.36 474.92 423.85 481.45C387.98 496.53 352.57 494.94 317.51 478.53C313.29 476.53 312.33 474.08 314.07 469.81C317.07 462.44 319.73 454.93 322.64 447.16C333.4 451.48 344.05 452.54 355.07 449.54C366.89 446.33 370.19 442.37 370.19 430.24V427.37C371.187 427.434 372.173 427.612 373.13 427.9C394.99 437.9 417.27 437.62 439.92 430.9C459.05 425.2 476.79 427.82 492.69 440.43C507.75 452.36 510.15 463.7 501.14 480.6C500.2 482.36 499.14 484.09 498.08 485.75C486.73 503.07 470.15 514.08 452.24 523.34C405.79 547.34 358.42 546.27 310.65 527.77C267.5 511.05 234.91 482.53 215.16 440.29C202.07 412.29 198.97 382.67 203.68 352.39C207.32 329.01 233.83 312.17 256.83 317.53C266.26 319.73 273.07 325.63 278.5 333.37C287.452 345.86 293.593 360.141 296.5 375.23C296.96 377.35 297.58 379.39 298.37 382.53ZM378.04 530.18C368.39 529.3 357.93 528.94 347.69 527.24C337.519 525.64 327.5 523.188 317.74 519.91C307.873 516.428 298.308 512.144 289.14 507.1C280.19 502.25 271.91 496.18 262.43 490.1C290.35 517.85 353.02 539.04 378.04 530.19V530.18ZM308.29 440.03C298.52 433.03 282.88 425.71 280.75 427.11C288.83 433.44 305.25 441.39 308.29 440.03ZM303.29 447.21C295.56 443.21 287.05 441.71 278.49 440.43C286.26 444.32 294.63 446.22 303.27 447.21H303.29ZM368.58 458.53C360 453.26 350.86 450.92 340.84 453.19L368.58 458.53ZM289.24 413.13L308.6 431.19C304.65 425.73 298.51 417.91 289.24 413.13ZM338.56 456.13C339.5 460.13 357.21 467.23 362.33 465.54L338.56 456.13Z" fill="white"/>
<path d="M205.16 335.88C206.61 324.8 216.51 320.41 222.8 313.12C217.22 312.37 217.14 312.4 204.06 321.68C205.51 316.02 209.24 313.27 213.68 312.04C220.86 310.04 228.24 308.73 235.56 307.24C238.14 306.71 240.78 306.5 243.4 306.15C243.57 305.65 243.73 305.15 243.89 304.65L233.83 300.37C241.83 299.12 249.53 302.85 258.19 305.37L252.93 297.59L253.15 297.01C256.23 299.24 259.55 301.19 262.33 303.74C269.7 310.48 276.65 317.74 284.11 324.33C297.11 335.89 312 339.66 328.53 333.2C332.53 331.63 336.22 328.61 339.36 325.55C343.02 321.99 341.68 317.81 336.67 316.55C332.37 315.5 327.89 315.18 323.49 314.55L323.35 313.3L343.72 311.77C338.83 303.28 330.06 304.17 322.04 301.43C332.38 300.09 340.89 303.08 349.14 307.36L350.08 305.83L339.28 299.28C352.76 298.45 360.79 306.28 369.11 313.58L370.62 313.1C369.75 309.59 368.89 306.1 367.91 302.1C375.48 307.61 377.53 316.24 380.7 324.15L382.41 323.65C381.27 318.97 380.13 314.29 378.88 309.14C384.36 309.74 387.37 312.68 388.64 317.31C391.15 326.44 393.42 335.65 395.93 345.4C404.02 339.22 412.52 334.34 422.93 333.88L405.99 343.66L406.28 345.21C407.852 345.29 409.428 345.29 411 345.21C421.42 344.21 431.83 342.85 442.28 342.11C445.643 341.79 449.035 342.152 452.255 343.172C455.474 344.193 458.456 345.852 461.02 348.05L441.12 346.05C441.01 346.64 440.89 347.24 440.78 347.84C451.09 350.3 462.05 351.06 470.78 358.62C464.78 357.71 460.14 352.86 453.84 354.21C460.84 359.21 467.97 363.79 470.03 374.21L465.11 368.53C467.2 375.97 471.79 382.74 470.11 391.89C468.85 388.69 468.05 386.22 466.94 383.89C463.73 377.21 458.99 371.89 451.94 369.27C442.47 365.72 437.26 370.18 438.82 380.16C440.38 390.14 446.64 396.88 453.92 402.93C463.61 410.93 474.83 415.78 487.12 418.22C488.27 418.45 489.41 418.67 490.54 418.96C491.116 419.177 491.671 419.445 492.2 419.76L483.77 421.06C498.55 424.57 513.5 427.06 524.35 439.21L505.25 429.88C505.07 430.27 504.9 430.66 504.72 431.06L522.83 447.95L521.67 449.27L516.83 445.13C519.13 454.13 521.53 462.5 516.97 471.95L515.48 460.79H514.22L512.81 473.29L511.72 473.38C511.03 469.81 509.98 466.26 509.72 462.66C509.03 453.25 504.5 445.99 497.72 439.82C480.36 423.94 460.16 420.91 438.14 426.97C424.06 430.85 409.88 434.08 395.3 431.17C387.39 429.59 379.72 426.67 372.08 423.95C369.765 422.991 367.756 421.417 366.27 419.4C360.49 411.86 353.56 405.81 345.13 401.97C349.62 398.51 354.43 395.55 358.3 391.65C365.3 384.57 367.56 375.56 366.13 365.84C364.38 353.91 355.03 347.46 340.6 348.26C329.38 348.88 320.22 353.68 315.03 363.93C310.16 373.54 311.34 382.93 317.97 391.6C318.13 391.81 318.07 392.19 318.1 392.5C312.4 389.94 307.72 384.9 303.9 376.9C297.74 364 291.71 351.03 285.5 338.15C284 335.178 282.31 332.305 280.44 329.55C270.57 314.36 258.3 309.55 240.61 313.55C226.84 316.71 215.15 323.13 206.5 334.55C206.088 335.027 205.64 335.472 205.16 335.88ZM419.55 398.11C419.75 390.39 416.55 384.22 410.69 379.41C405.349 375.069 398.739 372.586 391.861 372.337C384.983 372.088 378.211 374.087 372.57 378.03C363.03 384.74 357.92 396.76 360.57 406.19C364.11 418.7 378.38 427.74 391.77 425.96C407.83 423.84 419.48 412.12 419.55 398.11V398.11ZM374.37 356.76C381.54 346.84 376.51 333.49 365.04 331.17C354.7 329.07 345.29 331.72 336.53 337.17C331.037 340.474 326.519 345.178 323.44 350.8C331.03 347.63 337.58 344.3 344.49 342.13C356.49 338.35 364.92 341.96 371.49 352.71C372.34 354.1 373.36 355.35 374.37 356.76ZM388.76 363.47C421.11 366.07 419.76 375.47 423.81 395.47C431.62 386.18 431.81 370.31 424.25 362.59C415.83 354 399.83 354.22 388.76 363.47Z" fill="white"/>
<path d="M199.99 186.47C191.07 191.15 182.99 191.75 174.74 186.84C127.53 158.77 108.99 100 132.32 50.3501C141.1 31.6601 153.73 15.8601 172.67 6.17011C174.532 5.1083 176.597 4.45069 178.73 4.24011C207.22 3.18011 234.79 7.5201 261.13 18.7701C262.61 19.4101 264 20.2301 265.78 21.1401C257.15 22.1401 248.89 22.5701 240.93 24.2801C218.468 29.0074 198.35 41.4005 184.024 59.3352C169.699 77.2698 162.057 99.629 162.41 122.58C162.76 147.64 174.65 167.01 194.03 182.18C195.83 183.53 197.7 184.83 199.99 186.47Z" fill="white"/>
<path d="M164.56 6.36993C131.33 31.5299 116.12 64.6899 119.37 105.53C122.63 146.53 144.37 175.72 180.27 194.8C172.19 206.27 164.88 208.93 150.9 205.7C127.15 200.21 109.46 185.83 94.9 167.14C67.66 132.14 64.13 81.5199 86.29 45.6699C87.9874 42.8127 90.2058 40.2992 92.83 38.2599C113.71 22.9399 136.52 11.6899 162.03 6.35993C162.872 6.29253 163.718 6.29587 164.56 6.36993V6.36993Z" fill="white"/>
<path d="M197.58 319.01C198.95 325.15 199.64 330.12 201.19 334.8C203.8 342.66 200.73 349.1 192.85 350.96C155.76 359.69 128.23 381.31 108.79 413.62C83.79 455.09 76.17 499.34 88.39 546.51C90 552.73 92.76 558.65 95.18 565.26C89.5315 562.843 84.6248 558.971 80.96 554.04C68.31 537.64 61.46 518.86 59.42 498.44C53.83 442.65 72.83 396.01 113.29 357.91C132.42 339.91 156.13 330.19 181.11 323.3C186.95 321.69 192.83 320.24 197.58 319.01Z" fill="white"/>
<path d="M75.31 558.05C68.74 558.12 64.68 554.67 60.66 551.13C46.28 538.47 39.74 521.42 34.29 503.79C24.91 473.5 28.29 443.86 39.29 414.79C54.55 374.34 78.89 341.09 116.59 318.62C133.669 308.454 152.8 302.226 172.59 300.39C185.45 299.11 195.59 305.34 206.59 312.2C202.53 313.56 198.59 315.32 194.4 316.2C167.61 322.02 142.06 330.86 120.16 347.87C82.86 376.843 61.2267 414.843 55.26 461.87C51.71 490.08 54.84 517.34 67.33 543.19C68.56 545.74 69.99 548.19 71.33 550.67C72.67 553.15 73.83 555.3 75.31 558.05Z" fill="white"/>
<path d="M119.57 576.07C108.73 573.8 101.99 568.19 97.67 558.38C86.83 533.76 84.83 508.25 88.5 482.05C93.15 449.13 105.61 419.62 127.83 394.53C145.28 374.79 166.47 361.07 192.17 354.64C194.07 354.17 196 353.82 197.42 353.52C197.42 364.98 197.58 376.12 197.23 387.25C197.23 388.73 194.84 390.61 193.14 391.5C165.32 405.99 143.62 426.6 129.07 454.59C109.39 492.43 106.5 531.68 118.74 572.3C119.02 573.36 119.21 574.47 119.57 576.07Z" fill="white"/>
<path d="M163.55 212.81C162.828 214.098 162.196 215.434 161.66 216.81C158.28 229.01 148.88 231.63 137.87 232.26C115.36 233.56 96.76 224.26 79.66 211.03C56.16 192.81 42.51 168.39 35.74 139.82C35.1023 137.056 35.0377 134.19 35.55 131.4C41.36 101.25 54.27 74.6999 75.93 52.6499C76.4537 52.2696 77.0091 51.9351 77.59 51.6499C64.31 86.6099 64.71 120.53 81.53 153.53C98.57 187.05 126.03 206.53 163.55 212.81Z" fill="white"/>
<path d="M147.7 585.05C140.37 582.95 133.94 581.34 127.7 579.15C126.23 578.64 124.98 576.36 124.41 574.64C105.69 518.4 116.08 468.163 155.58 423.93C164.802 413.604 175.64 404.843 187.67 397.99C190.36 396.45 193.23 395.23 196.67 393.55C199.32 405.03 201.43 415.93 204.45 426.55C206.1 432.34 204.55 435.18 199.77 438.61C171.88 458.61 152.51 484.61 145.77 518.99C141.85 539.07 142.94 559.07 146.69 578.99C147.01 580.64 147.24 582.25 147.7 585.05Z" fill="white"/>
<path d="M57.36 556.23C44.67 552.14 34.24 543.02 26.23 531.34C7.1 503.43 -0.17 472.53 8.41 439.62C20.98 391.39 44.41 349.05 83.41 316.82C108.41 296.17 137.2 289.31 170.16 296.82C161.94 298.5 154.63 299.63 147.53 301.53C121.58 308.44 100 322.81 81.23 341.6C56.13 366.74 38.23 396.09 29.96 430.9C22.09 464.08 22.2 496.76 38.49 527.67C43.83 537.92 51.29 547.16 57.36 556.23Z" fill="white"/>
<path d="M207.46 438.04L225.53 470.94C187.24 494.79 166.53 528.01 169.21 575.34C167.99 573.786 166.674 572.31 165.27 570.92C164.338 570.32 163.329 569.849 162.27 569.52C162.01 569.92 161.75 570.32 161.48 570.72C163.75 573.5 166.02 576.27 168.28 579.06C170.54 581.85 172.83 584.71 176.11 588.79C169.04 587.92 163.01 588.02 157.64 586.17C154.94 585.25 152.47 581.06 151.64 577.89C144.027 550.33 145.727 523.297 156.74 496.79C165.794 474.421 181.303 455.253 201.29 441.73C203.05 440.53 204.97 439.53 207.46 438.04Z" fill="white"/>
<path d="M33.53 150.94C36.75 157.94 39.35 163.94 42.31 169.83C57.58 200.19 79.67 223.04 112.85 233.65C125.85 237.81 138.85 238.65 153.43 234.14C150.43 241.74 148.05 248.39 145.02 254.72C144.17 256.49 141.46 257.62 139.38 258.51C123.75 265.15 107.81 264.19 91.88 259.84C66.88 253.02 48.09 237.96 34.98 215.73C33.9005 214.066 33.2543 212.158 33.1 210.18C32.9 191.35 32.89 172.51 32.85 153.68C32.9973 152.749 33.2249 151.832 33.53 150.94Z" fill="white"/>
<path d="M256.14 503.1C212.02 518.83 192.52 550.1 195.5 597.4C189.62 592.8 184.98 588.71 179.88 585.28C173.64 581.08 173.41 574.92 173.28 568.5C172.47 528.71 191.55 494.38 225.28 475.4L256.14 503.1Z" fill="white"/>
<path d="M33 221.64C61.11 258.21 95.47 276.35 142.73 263.74C139.67 270.49 136.98 277.35 133.5 283.74C131.02 288.33 126.39 290.33 121.23 291.45C116.23 292.54 111.57 294.88 106.6 295.94C101.34 297.06 95.6 298.67 90.6 297.7C69.05 293.57 50.6 283.37 36.25 266.53C34.3965 264.258 33.3112 261.457 33.15 258.53C32.83 246.53 33 234.33 33 221.64Z" fill="white"/>
<path d="M278.57 528.29C273.24 561.94 283.89 586.16 316.34 599.53C306.61 606.26 297.78 612.63 288.6 618.45C287.04 619.45 283.7 618.69 281.69 617.71C259.69 607.12 248.81 585.39 250.41 559.57C251.08 548.71 254.48 541.46 264.41 536.99C269.07 534.92 273.18 531.66 278.57 528.29Z" fill="white"/>
<path d="M281.66 520.8C275.86 523.92 270.78 527.25 265.26 529.44C260.798 531.219 256.061 532.207 251.26 532.36C246.028 532.39 240.855 533.467 236.046 535.528C231.237 537.589 226.89 540.592 223.26 544.36C233.67 540.59 242.88 535.1 254.86 536.6C253.03 538.02 252 538.93 250.86 539.66C247.37 541.92 243.86 544.13 240.3 546.31C224.3 556.14 216.97 571.75 219.78 590.51C220.78 597.57 222.09 604.6 223.44 612.79C215.86 608.53 208.97 604.79 202.28 600.79C201.14 600.1 200.43 598.04 200.28 596.53C195.75 559.53 209.98 526.85 247.28 509.83C255.82 505.93 263.45 505.76 270.58 512.98C273.54 515.96 277.55 517.95 281.66 520.8Z" fill="white"/>
<path d="M412.63 578.64C425.33 582.96 437.21 582.4 448.29 574.93C463.14 564.93 471.1 543.25 466.42 525.93C466.05 524.55 466.42 522.93 466.5 521.45C467.93 522.01 469.65 522.25 470.73 523.21C473.82 525.98 476.73 528.97 479.59 532C490.45 543.58 492.06 556.79 486.46 571.3C477.57 594.3 451.61 608.12 429.72 601.3C418.69 597.97 412.13 589.46 412.63 578.64Z" fill="white"/>
<path d="M234.53 556.72L232.46 561.38L232.95 561.87L246.08 549.47C245.88 564.16 246.08 577.67 251.2 590.56C256.43 603.8 265.85 613.27 277.41 621.99C270.23 621.99 262.94 622.79 255.91 621.78C248.07 620.65 240.44 617.97 232.79 615.78C231.215 615.35 229.874 614.315 229.06 612.9C222.51 596.26 219.94 579.53 228.99 562.85C229.992 561.116 231.1 559.446 232.31 557.85C232.796 557.28 233.335 556.758 233.92 556.29L234.53 556.72Z" fill="white"/>
<path d="M309.4 534C317.54 536.34 325.23 539.13 333.17 540.69C345.17 543.06 357.4 544.77 369.58 546.33C373.36 546.82 376.08 548.03 377.15 551.6C378.353 555.217 379.148 558.957 379.52 562.75C379.9 568.39 377.07 570.97 370.52 571.36C375.31 564.21 374.98 557.36 369.32 550.19C370.61 561.19 372.32 572.35 354.98 569.97C357.85 562.38 359.3 554.91 353.98 547.55C352.17 555.63 356.54 565.75 345.12 569.42C334.54 572.83 330.83 564.53 325.54 557.11C324.03 566.56 330.96 569.99 336.12 575.5C327.51 576.64 321.12 573.7 315.51 568.84C307.05 561.53 304.83 548.53 309.4 534Z" fill="white"/>
<path d="M343.06 446.12C340.241 446.258 337.417 446.242 334.6 446.07C327.34 445.26 321.51 442.07 319.03 434.78C316.7 427.88 314.67 420.87 312.74 413.85C311.44 409.09 313.44 405.85 318 403.99C324.384 401.472 331.43 401.18 338 403.16C351.17 406.84 361.31 414.31 366.27 427.51C369.59 436.35 366.46 442.6 357.27 445.04C352.69 446.26 347.8 446.3 343.05 446.88L343.06 446.12ZM349.06 438C344.06 435 337.75 435.51 334.06 439.2C333.099 440.285 332.531 441.663 332.45 443.11C332.45 443.8 333.75 444.95 334.68 445.24C339.33 446.73 346.74 443.04 349.04 438H349.06ZM323.38 424.66L324.75 424.96C324.33 428.05 324.01 431.15 323.41 434.2C323.23 435.2 322.31 435.98 321.73 436.86C322.36 437.27 323.34 438.16 323.55 438C324.63 437.2 326.18 436.23 326.35 435.13C326.879 432.023 327.01 428.86 326.74 425.72C326.59 424.14 325.09 422.72 324.19 421.18C322.85 422.72 321.48 424.24 320.19 425.82C320.08 425.97 320.49 426.54 320.76 427.15L323.38 424.66Z" fill="white"/>
<path d="M32.83 269.45C49.15 286.68 67.63 298.07 90.99 302.83C84.44 308.59 78.67 313.76 72.8 318.83C61.63 328.45 61.04 328.47 48.18 321.04C47.02 320.37 45.93 319.61 44.81 318.89C34.34 312.23 27.1 304.35 30.95 290.34C32.67 284.07 32.21 277.23 32.83 269.45Z" fill="white"/>
<path d="M332.22 581.46C328.33 585.7 325.22 589.64 321.48 592.88C320.14 594.04 317.07 594.29 315.23 593.67C291.92 585.77 278.87 565.8 280.77 541.28C281.012 537.625 281.456 533.986 282.1 530.38C282.98 525.71 286.03 523.76 290.44 525.38C294.937 527.126 299.307 529.181 303.52 531.53C304.34 531.98 304.77 533.96 304.68 535.18C304.33 539.99 303.35 544.76 303.26 549.56C302.98 563.56 309.26 572.86 322.38 578.05C325.29 579.19 328.3 580.11 332.22 581.46Z" fill="white"/>
<path d="M344.23 353.1C350.37 353.36 357.71 356.04 361.34 364.74C364.75 372.92 360.9 384.91 352.61 392.6C345.03 399.6 334.27 400.82 326.53 395.49C317.03 388.94 313.2 377.22 317.39 367.49C321.05 359.05 331.31 352.94 344.23 353.1ZM347.14 388.73C346.71 385.92 345.95 383.07 341.99 383C338.7 382.95 334.21 387 335.2 390C335.91 392.09 338.57 394.26 340.8 394.93C343.98 395.89 347.05 392.53 347.14 388.73Z" fill="white"/>
<path d="M441.49 552.83C444.43 551.93 447.36 550.97 450.32 550.13C456.18 548.48 457 546.44 453.64 541.59C451.69 538.77 449.71 535.98 447.41 532.71C448.21 549.71 436.41 552.71 424.07 545.26C425.22 551.13 430.23 551.83 434.47 553.73C433.42 558.1 429.82 558.6 426.47 559.04C417.24 560.24 415.37 552.45 411.86 546.04C409.92 553.2 413.77 557.55 417.74 561.85C409.11 565.2 402.06 557.79 402.26 546.74L462.03 525.74C469.66 547.67 453.91 574.21 430.3 578.1C421.95 579.48 414.47 576.61 411.3 570.1H431.38C430.64 567.77 430.11 566.1 429.43 563.96L446.58 560.33C446.85 559.75 447.13 559.18 447.4 558.6L441.26 554.6L441.49 552.83Z" fill="white"/>
<path d="M406.7 582.29C407.28 582.8 407.46 582.88 407.51 583.02C410.9 592.13 410.9 592.14 401.82 595.71C376.91 605.5 351.31 609.87 324.61 605.35C322.99 605.08 321.39 604.7 319.09 604.23C322.95 599.78 326.09 595.44 330 591.95C332.185 590.318 334.908 589.574 337.62 589.87C361.25 592.67 384.48 592.41 406.7 582.29Z" fill="white"/>
<path d="M281.48 493.34L293.98 470.58L324.73 487.95C321.14 494 317.95 499.81 314.23 505.27C313.45 506.41 310.34 507.12 308.98 506.51C299.9 502.44 291.01 497.96 281.48 493.34Z" fill="white"/>
<path d="M359.83 496.59C356.43 503.42 353.38 509.84 349.99 516.07C349.45 517.07 347.17 517.9 345.99 517.62C335.99 515.31 326.05 512.72 315.56 510.08C319.47 503.44 323.08 497.15 326.9 490.98C327.26 490.493 327.731 490.1 328.273 489.832C328.816 489.564 329.415 489.43 330.02 489.44C339.77 491.66 349.54 494.09 359.83 496.59Z" fill="white"/>
<path d="M29.17 312.72L57.96 332.43L39.83 356.6C35.43 352.71 31.16 349.05 27.06 345.22C26.6913 344.784 26.413 344.28 26.2413 343.736C26.0696 343.191 26.008 342.618 26.06 342.05C27.02 332.19 28.13 322.34 29.17 312.72Z" fill="white"/>
<path d="M349.44 574.88C349.83 576.57 349.96 577.36 350.2 578.11C350.74 579.76 351.34 581.38 351.92 583.02C353.884 582.336 355.793 581.504 357.63 580.53C359.52 579.154 361.314 577.65 363 576.03V582.53C370.36 579.31 377.29 576.64 381.76 570.39C382.775 568.786 384.177 567.461 385.837 566.539C387.497 565.617 389.361 565.125 391.26 565.11C393.232 564.864 395.166 564.377 397.02 563.66C401.47 562.34 405.22 564.34 406.76 568.89C408.56 574.22 407.03 578.18 402.49 579.89C380.73 588.02 358.43 588.95 335.12 585.02L339 578.25L341.35 583.52C342.85 582.07 344.07 580.98 345.19 579.79C346.31 578.6 347.58 577.02 349.44 574.88Z" fill="white"/>
<path d="M394.12 496.28C390.89 504.05 387.97 511.28 384.83 518.34C384.482 518.864 384.019 519.302 383.477 519.62C382.935 519.939 382.327 520.131 381.7 520.18C372.12 520.32 362.53 520.26 351.81 520.26C355.72 512.02 358.81 505.26 362.18 498.65C362.541 498.044 363.033 497.526 363.619 497.133C364.206 496.741 364.872 496.483 365.57 496.38C374.83 496.2 384.12 496.28 394.12 496.28Z" fill="white"/>
<path d="M423.89 486.61C421.6 495.54 419.65 503.36 417.53 511.14C417.338 511.661 417.036 512.135 416.645 512.529C416.253 512.922 415.78 513.226 415.26 513.42C406.53 515.92 397.77 518.26 387.66 521.01C391.11 511.89 394.07 503.92 397.16 496.01C397.36 495.556 397.647 495.145 398.006 494.802C398.364 494.458 398.787 494.189 399.25 494.01C407.09 491.58 414.97 489.27 423.89 486.61Z" fill="white"/>
<path d="M279.18 491.63C273.01 486.29 267.18 481.39 261.59 476.21C260.74 475.43 260.48 472.97 261.06 471.87C264.72 465.02 268.68 458.34 272.7 451.33L291.52 468.42L279.18 491.63Z" fill="white"/>
<path d="M472.17 516.58C477.05 514.58 479.43 508.87 485.36 511.02C492.67 513.66 499.36 517.75 501.5 525.39C504.03 534.56 504.88 544.2 506.5 553.64L504.38 554.49L472.17 516.58Z" fill="white"/>
<path d="M256.68 429.63C261.08 435.47 265.27 440.63 268.97 446.18C269.427 447.052 269.679 448.017 269.707 449.001C269.735 449.986 269.537 450.963 269.13 451.86C265.29 458.47 261 464.81 256.27 472.19C251.42 465.03 246.83 458.44 242.54 451.66C242.02 450.83 242.79 448.72 243.54 447.66C247.66 441.78 251.95 436.07 256.68 429.63Z" fill="white"/>
<path d="M244.9 403.83C248.17 410.91 251.2 417.2 253.9 423.61C254.47 424.95 254.62 427.2 253.9 428.27C249.38 434.77 244.55 441.05 239.2 448.27C236.01 439.35 233.08 431.48 230.48 423.5C230.342 422.723 230.371 421.925 230.564 421.16C230.757 420.395 231.11 419.679 231.6 419.06C235.73 414.04 240.11 409.27 244.9 403.83Z" fill="white"/>
<path d="M493.39 547.3C501.64 553.65 505.12 564.74 501.25 573.11C495.07 586.47 484.57 595.23 470.81 600.17C469.93 600.279 469.04 600.279 468.16 600.17C486.4 586.97 496.21 570.21 493.39 547.3Z" fill="white"/>
<path d="M398.14 338.71C394.6 326.93 397.06 313.59 385.14 305.53C389.44 302.47 393.3 299.63 397.27 296.94C400.01 295.08 401.94 295.86 402.8 299.11C406.03 311.37 404.8 323.45 401.36 335.45C401.154 336.074 400.812 336.644 400.36 337.12C399.668 337.714 398.925 338.246 398.14 338.71V338.71Z" fill="white"/>
<path d="M421.56 511.14C423.22 502.08 424.56 494.29 426.16 486.54C426.602 485.304 427.466 484.262 428.6 483.6C433.15 480.6 437.82 477.77 443.33 474.33C442.15 482.85 441.18 490.33 440 497.83C439.73 499.135 438.981 500.291 437.9 501.07C432.93 504.31 427.83 507.32 421.56 511.14Z" fill="white"/>
<path d="M241.15 382.53C247.15 398.13 244.32 405.99 228.93 416.19C226.93 408.11 226.4 400.1 228.2 392.19C228.65 390.19 231.12 388.45 233.03 387.1C235.648 385.424 238.359 383.898 241.15 382.53V382.53Z" fill="white"/>
<path d="M444.54 494.65C444.9 487.33 444.89 480.5 445.75 473.78C446.09 471.06 448.12 468.43 449.75 466.03C452.26 462.37 455.12 458.95 457.9 455.33C466.13 467.72 457.07 487.88 444.54 494.65Z" fill="white"/>
<path d="M24.49 349.8L36.59 360.8C30.4 373.28 24.31 385.55 18.21 397.8L17.14 397.53C19.55 381.88 21.96 366.26 24.49 349.8Z" fill="white"/>
<path d="M422.96 326.66C429.35 323.84 435.66 320.82 442.15 318.26C445.56 316.92 446.69 318.95 446.09 322.18C445.88 323.32 445.61 324.44 445.39 325.58C442.81 339.46 442.09 339.96 426.6 337.81L441.6 333.74C436.17 328.47 429.65 328.59 423.34 328.08L422.96 326.66Z" fill="white"/>
<path d="M379.27 546.68H395.95C396.5 548.88 397.14 550.92 397.5 553C397.98 555.75 400.74 559 395.5 560.52C388.99 562.4 384.57 561.39 382.94 557.05C381.74 553.82 380.64 550.53 379.27 546.68Z" fill="white"/>
<path d="M243.68 361.41C243.04 378.41 240.52 382.23 228.04 385.14C231.04 378.43 233.44 371.98 236.69 365.96C237.76 363.99 240.9 363.14 243.68 361.41Z" fill="white"/>
<path d="M485.2 507.32L493.54 499.57C494.76 503.57 496 507.74 497.54 512.97L485.2 507.32Z" fill="white"/>
<path d="M463.7 464.98L461.22 447.44C467.31 448.54 468.22 449.67 467.29 454.93C466.66 458.31 465.67 461.62 464.85 464.93L463.7 464.98Z" fill="white"/>
<path d="M451.33 337.95H446.22C447.37 332.88 448.44 328.14 449.52 323.4L450.25 323.47C450.6 328.12 450.94 332.77 451.33 337.95Z" fill="white"/>
<path d="M389.2 297.07C385.92 301.37 382.42 305.19 375.06 303.69L389.2 297.07Z" fill="white"/>
<path d="M241.48 358.09L249.48 351.02C248.95 355.74 246.41 358.31 241.48 358.09Z" fill="white"/>
<path d="M378.04 530.19C353.04 539.04 290.35 517.85 262.43 490.07C271.91 496.19 280.19 502.26 289.14 507.07C298.308 512.114 307.873 516.398 317.74 519.88C327.5 523.158 337.519 525.61 347.69 527.21C357.93 528.95 368.39 529.31 378.04 530.19Z" fill="black"/>
<path d="M308.29 440.03C305.29 441.39 288.8 433.44 280.75 427.11C282.88 425.71 298.52 432.98 308.29 440.03Z" fill="black"/>
<path d="M303.27 447.21C294.63 446.21 286.27 444.32 278.47 440.43C287.03 441.71 295.54 443.16 303.27 447.21Z" fill="black"/>
<path d="M368.58 458.53L340.83 453.16C350.83 450.89 360 453.23 368.58 458.53Z" fill="black"/>
<path d="M289.24 413.13C298.51 417.91 304.65 425.73 308.6 431.19L289.24 413.13Z" fill="black"/>
<path d="M338.56 456.12L362.33 465.53C357.21 467.22 339.5 460.09 338.56 456.12Z" fill="black"/>
<path d="M419.54 398.12C419.48 412.12 407.79 423.84 391.79 425.96C378.4 427.74 364.13 418.7 360.59 406.19C357.92 396.76 363.03 384.74 372.59 378.03C378.231 374.087 385.003 372.088 391.881 372.337C398.759 372.586 405.369 375.069 410.71 379.41C416.55 384.22 419.75 390.39 419.54 398.12ZM388.33 423.31C405.08 423.21 417.82 409.02 414.48 394.17C412.33 384.57 403.97 377.97 392.17 376.54C377.92 374.82 363.99 385.82 363.33 399.32C362.67 412.82 373.83 423.4 388.33 423.31Z" fill="black"/>
<path d="M374.37 356.76C373.37 355.35 372.37 354.1 371.51 352.76C364.92 342.01 356.51 338.4 344.51 342.18C337.6 344.35 331.05 347.68 323.46 350.85C326.539 345.227 331.057 340.524 336.55 337.22C345.31 331.75 354.72 329.1 365.06 331.22C376.51 333.53 381.54 346.84 374.37 356.76ZM373.95 350.43C375.24 343.73 373.1 338.2 368.66 335.43C361.59 331 344.78 333.6 338.66 340.43C352.6 335.76 365.34 334.62 373.95 350.43V350.43Z" fill="black"/>
<path d="M388.76 363.47C399.76 354.22 415.76 354 424.25 362.61C431.83 370.33 431.62 386.2 423.81 395.49C419.76 375.53 421.11 366.07 388.76 363.47ZM425.63 385.33C427.86 377.03 427.46 369.15 420.85 363.5C414.91 358.42 407.55 358.7 400.12 360.86C415.32 362.07 423.46 370.46 425.63 385.33Z" fill="black"/>
<path d="M349.04 438C346.74 443 339.33 446.73 334.65 445.24C333.72 444.95 332.38 443.8 332.42 443.11C332.501 441.663 333.069 440.285 334.03 439.2C337.73 435.53 344 435.05 349.04 438Z" fill="black"/>
<path d="M323.36 424.66L320.74 427.15C320.47 426.54 320.06 425.97 320.17 425.82C321.46 424.24 322.83 422.72 324.17 421.18C325.07 422.69 326.57 424.18 326.72 425.72C326.99 428.86 326.859 432.023 326.33 435.13C326.16 436.23 324.61 437.2 323.53 438C323.32 438.16 322.34 437.27 321.71 436.86C322.29 435.98 323.21 435.16 323.39 434.2C323.99 431.2 324.31 428.05 324.73 424.96L323.36 424.66Z" fill="black"/>
<path d="M347.14 388.73C347.05 392.56 343.98 395.89 340.8 394.92C338.57 394.25 335.91 392.08 335.2 389.99C334.2 386.99 338.7 382.99 341.99 382.99C345.95 383.07 346.71 385.92 347.14 388.73ZM339.84 393.21H342.3L343.02 387.09L339.17 387.51C339.39 389.42 339.62 391.31 339.83 393.21H339.84Z" fill="black"/>
<path d="M388.33 423.31C373.85 423.4 362.68 412.68 363.33 399.31C363.98 385.94 377.92 374.81 392.17 376.53C403.97 377.96 412.33 384.53 414.48 394.16C417.83 409.02 405.08 423.21 388.33 423.31ZM380.2 405.44C380.25 401.16 378.2 399.36 374.38 399.2C370.19 399.02 368.23 401.2 368.11 405.2C367.99 409.2 370.27 411.01 373.92 411.2C378.06 411.42 379.91 408.99 380.2 405.44V405.44Z" fill="white"/>
<path d="M373.95 350.43C365.34 334.62 352.6 335.76 338.65 340.43C344.78 333.63 361.59 331.03 368.65 335.43C373.1 338.2 375.24 343.73 373.95 350.43Z" fill="white"/>
<path d="M425.63 385.33C423.46 370.46 415.32 362.07 400.12 360.86C407.55 358.7 414.91 358.42 420.85 363.5C427.46 369.15 427.83 377.03 425.63 385.33Z" fill="white"/>
<path d="M339.83 393.21C339.61 391.31 339.38 389.42 339.16 387.53L343.01 387.11L342.29 393.23L339.83 393.21Z" fill="white"/>
<path d="M380.2 405.44C379.91 408.99 378.06 411.44 373.92 411.19C370.27 410.99 367.98 409.13 368.11 405.19C368.24 401.25 370.19 399.03 374.38 399.19C378.16 399.36 380.25 401.16 380.2 405.44ZM371.53 405.61C374.31 409.74 376.25 407.19 378.53 405.01C375.68 401.87 373.45 401.79 371.53 405.61V405.61Z" fill="black"/>
<path d="M371.53 405.61C373.45 401.79 375.68 401.87 378.53 405.01C376.25 407.19 374.31 409.74 371.53 405.61Z" fill="white"/>
</g>
<defs>
<clipPath id="clip0_5_972">
<rect width="534.86" height="628.55" fill="white"/>
</clipPath>
</defs>
</svg>
