<svg id="Layer_1" data-name="Layer 1" xmlns="http://www.w3.org/2000/svg" viewBox="0 0 365 249.29">
<g id="Black">
	<rect stroke="#FFFFFF" fill="#ffffff" stroke-miterlimit="10" width="365" height="249"/>
</g>
<g id="Color">
	<path fill="#ffffff" stroke="#000000" d="M216.83,546.07c-39.54-.33-70.69-24.72-93.5-62.73-7.86-13.09-9.17-26.23-4.69-41,6.77-22.21,15-43.52,30.57-61.09,17.62-19.85,39.39-28,65.95-22.8,30.88,6.09,62,8.79,93.4,4.32,13.43-1.92,26.47-5.24,38.36-12,14.62-8.34,23.46-20.21,23.5-37.83,0-10.24,6.12-15.66,17.07-16.11,11.8-.49,22.72,3.1,33.16,8.06,21.53,10.22,39.71,24.44,51.61,45.53C485,373,483.7,395.32,469.83,417c-9.95,15.57-24.15,27-38.16,38.56-41.52,34.17-87.22,61-138.51,77.79C270.58,540.77,247.5,545.58,216.83,546.07ZM308.92,366a41.48,41.48,0,0,0-4.76,0c-21.13,2.69-42.22,1.85-63.26-.86-3.88-.5-6.62.3-9.33,3-25.16,24.67-37.91,64.1-20.12,101.28,12.31,25.72,30.61,46.58,51.9,65.14,3,2.67,5.83,3.24,9.39,2,19.1-6.75,38.26-13.33,57.27-20.31,5.94-2.18,11.47-5.45,17.53-8.39-19-19.27-36.54-38.38-43.61-64.51S302.27,391.57,308.92,366ZM263.49,538.29c-1.64-1.49-2.95-2.7-4.29-3.88-17.72-15.66-33.14-33.22-45-53.79-20.84-36.12-17.56-75.36,9.08-107.34,2.51-3,5.32-5.79,8.36-9.08-4-.74-7.42-1.22-10.76-2-37.36-8.93-61.66,6-80.07,34.78-11.25,17.62-17.79,37.09-22.08,57.46a26.68,26.68,0,0,0,1.6,16c5.94,14.92,14.88,27.78,25.92,39.38C179.09,544.36,219.15,548.85,263.49,538.29Zm39.64-122c.12,17.36,3.74,32.54,11.61,46.69,8.51,15.29,20.08,28.1,32.22,40.51,2.45,2.51,4.36,2.87,7.23,1q28.19-18,56.47-35.73c3-1.9,3.76-4.21,3.18-7.48-1.36-7.7-2.56-15.43-3.86-23.13-6.08-36.15-24.26-64.69-54.13-85.8-1.23-.86-3.68-1.53-4.72-.9-11.28,6.85-23.68,10.4-36.42,13.15a5,5,0,0,0-3.27,2.82C306.81,383.86,303.41,400.46,303.13,416.31Zm51.66-67.4c42.22,27,57.48,67.85,61.66,115.54,5.27-4.2,9.63-7.46,13.74-11,13.37-11.49,27.4-22.34,37.16-37.44,14.6-22.59,14.78-45.39.43-68-12-19-29.27-32.08-49.56-41.29-10.4-4.72-21.15-8.16-32.81-7-7.45.76-12.32,4.85-12.23,11.44C373.38,326.44,367.72,338.7,354.79,348.91Z" transform="translate(-116.08 -296.78)"/><path stroke="#000000" fill="#ffffff" class="cls-1" d="M308.92,366c-6.65,25.55-12.1,51.08-5,77.31s24.66,45.24,43.61,64.51c-6.06,2.94-11.59,6.21-17.53,8.39-19,7-38.17,13.56-57.27,20.31-3.56,1.26-6.34.69-9.39-2-21.29-18.56-39.59-39.42-51.9-65.14-17.79-37.18-5-76.61,20.12-101.28,2.71-2.66,5.45-3.46,9.33-3,21,2.71,42.13,3.55,63.26.86A41.48,41.48,0,0,1,308.92,366Z" transform="translate(-116.08 -296.78)"/><path stroke="#000000" fill="#ffffff" class="cls-1" d="M263.49,538.29c-44.34,10.56-84.4,6.07-117.25-28.46-11-11.6-20-24.46-25.92-39.38a26.68,26.68,0,0,1-1.6-16C123,434.05,129.55,414.58,140.8,397c18.41-28.81,42.71-43.71,80.07-34.78,3.34.8,6.76,1.28,10.76,2-3,3.29-5.85,6.06-8.36,9.08-26.64,32-29.92,71.22-9.08,107.34,11.87,20.57,27.29,38.13,45,53.79C260.54,535.59,261.85,536.8,263.49,538.29Z" transform="translate(-116.08 -296.78)"/><path stroke="#000000" fill="#ffffff" class="cls-1" d="M303.13,416.31c.28-15.85,3.68-32.45,8.31-48.83a5,5,0,0,1,3.27-2.82c12.74-2.75,25.14-6.3,36.42-13.15,1-.63,3.49,0,4.72.9,29.87,21.11,48,49.65,54.13,85.8,1.3,7.7,2.5,15.43,3.86,23.13.58,3.27-.15,5.58-3.18,7.48q-28.32,17.71-56.47,35.73c-2.87,1.83-4.78,1.47-7.23-1-12.14-12.41-23.71-25.22-32.22-40.51C306.87,448.85,303.25,433.67,303.13,416.31Z" transform="translate(-116.08 -296.78)"/><path stroke="#000000" fill="#ffffff" class="cls-1" d="M354.79,348.91c12.93-10.21,18.59-22.47,18.39-37.73-.09-6.59,4.78-10.68,12.23-11.44,11.66-1.19,22.41,2.25,32.81,7,20.29,9.21,37.51,22.31,49.56,41.29,14.35,22.62,14.17,45.42-.43,68-9.76,15.1-23.79,25.95-37.16,37.44-4.11,3.54-8.47,6.8-13.74,11C412.27,416.76,397,375.9,354.79,348.91Z" transform="translate(-116.08 -296.78)"/>
</g>
</svg>