<svg width="789" height="534" viewBox="0 0 789 534" fill="none" xmlns="http://www.w3.org/2000/svg">
<rect width="788.113" height="532.369" transform="translate(0 0.938385)" fill="white"/>
<path d="M267.187 174.229C168.569 154.611 126.638 268.815 118 328.37C123.136 352.425 149.798 408.664 215.357 441.173C297.304 481.811 482.912 424.358 627.196 290.535C771.48 156.713 504.625 27.7943 506.026 103.464C507.426 179.133 390.458 198.751 267.187 174.229Z" fill="white" stroke="black" stroke-width="4"/>
<path d="M413.393 182C385.391 280.948 399.623 327.84 472 398" stroke="black" stroke-width="4"/>
<path d="M477 157C542.354 204.238 561.868 244.895 573 337" stroke="black" stroke-width="4"/>
<path d="M298.45 180C279.104 194.916 242.09 239.852 248.803 300.264C255.516 360.675 316.398 421.926 346 445" stroke="black" stroke-width="4"/>
</svg>
