<svg width="557" height="377" viewBox="0 0 557 377" fill="none" xmlns="http://www.w3.org/2000/svg">
<path d="M3 249.37L1.02071 249.083L0.9693 249.437L1.04409 249.788L3 249.37ZM152.187 95.2286L152.577 93.2671L152.187 95.2286ZM512.196 211.535L510.836 210.069L510.836 210.069L512.196 211.535ZM100.357 362.173L99.4681 363.965L99.4681 363.965L100.357 362.173ZM133.803 221.264L131.815 221.485L131.815 221.485L133.803 221.264ZM4.97929 249.657C9.26955 220.079 21.8326 176.973 45.4803 143.77C69.0736 110.643 103.499 87.5823 151.797 97.1902L152.577 93.2671C102.257 83.257 66.4083 107.49 42.2222 141.449C18.0905 175.332 5.36881 219.106 1.02071 249.083L4.97929 249.657ZM151.797 97.1902C213.604 109.486 273.987 110.753 318.851 99.3566C341.285 93.6578 359.984 84.7555 373.013 72.3401C386.095 59.8741 393.386 43.9286 393.025 24.4267L389.026 24.5008C389.365 42.8336 382.561 57.7164 370.253 69.4443C357.893 81.223 339.908 89.8806 317.866 95.4797C273.778 106.679 214.041 105.494 152.577 93.2671L151.797 97.1902ZM393.025 24.4267C392.943 19.9917 393.844 16.4356 395.471 13.6271C397.095 10.8247 399.509 8.64996 402.645 7.07506C408.986 3.89097 418.242 3.18752 429.348 4.92771C451.498 8.39862 479.895 21.4187 503.929 40.9908C527.966 60.565 547.36 86.4615 551.961 115.521C556.54 144.443 546.533 176.96 510.836 210.069L513.556 213.002C550.001 179.199 560.744 145.418 555.911 114.895C551.1 84.5091 530.922 57.8137 506.455 37.8891C481.986 17.9625 452.949 4.57713 429.967 0.97593C418.506 -0.819936 408.271 -0.226098 400.85 3.50044C397.106 5.38086 394.071 8.06479 392.01 11.6218C389.953 15.1728 388.933 19.4771 389.026 24.5008L393.025 24.4267ZM510.836 210.069C438.892 276.797 356.656 324.47 282.242 350.388C245.036 363.347 209.829 370.852 178.875 372.602C147.9 374.353 121.315 370.334 101.245 360.382L99.4681 363.965C120.372 374.331 147.718 378.37 179.101 376.596C210.505 374.82 246.083 367.218 283.558 354.166C358.506 328.061 441.217 280.096 513.556 213.002L510.836 210.069ZM101.245 360.382C36.3046 328.178 9.98222 272.493 4.95591 248.952L1.04409 249.788C6.29042 274.358 33.2924 331.149 99.4681 363.965L101.245 360.382ZM296.468 102.455C282.43 152.062 278.878 188.946 288.127 222.329C297.375 255.707 319.335 285.273 355.608 320.436L358.392 317.564C322.289 282.566 300.944 253.607 291.982 221.261C283.022 188.922 286.354 152.886 300.317 103.545L296.468 102.455ZM360.828 79.6209C393.354 103.131 414.314 124.887 428.561 152.103C442.831 179.36 450.458 212.261 456.014 258.24L459.986 257.76C454.411 211.634 446.715 178.155 432.105 150.247C417.474 122.299 395.999 100.107 363.172 76.3791L360.828 79.6209ZM182.229 99.4161C162.541 114.596 125 160.149 131.815 221.485L135.791 221.043C129.181 161.555 165.667 117.237 184.672 102.584L182.229 99.4161ZM131.815 221.485C135.231 252.223 152.384 282.989 172.232 308.851C192.104 334.747 214.849 355.946 229.77 367.577L232.23 364.423C217.549 352.98 195.052 332.017 175.405 306.416C155.733 280.782 139.088 250.716 135.791 221.043L131.815 221.485Z" fill="black"/>
</svg>
