<svg width="824" height="908" viewBox="0 0 824 908" fill="none" xmlns="http://www.w3.org/2000/svg">
<g id="Black">
	<rect stroke="#FFFFFF" fill="#000000" stroke-miterlimit="10" width="824" height="908"/>
</g>
<g id="Color">
<path d="M370.5 907C318 907 265.5 907 213 907C213.02 905.84 212.96 904.67 213.06 903.51C215.04 878.27 217.69 853.1 221.68 828.09C222.3 824.22 223.04 820.37 223.73 816.5C223.89 816.52 224.05 816.53 224.21 816.55C225.21 826.58 226.2 836.6 227.2 846.63C227.99 846.16 228.27 845.68 228.49 845.18C232.47 835.85 236.49 826.54 240.41 817.18C247.16 801.06 253.87 784.93 263.31 770.13C265.83 766.18 268.58 762.37 271.63 757.91C272.38 761.3 272.92 763.87 273.52 766.42C277.44 783.16 282.62 799.45 290.95 814.6C292.06 816.61 293.12 817.08 294.91 815.62C294.91 815.24 294.95 814.91 294.9 814.58C292.51 798.48 292.28 782.38 295.02 766.31C298.32 746.91 305.36 729.17 318.61 714.28C321.08 711.5 323.88 709.03 326.53 706.41C326.66 706.55 326.79 706.68 326.92 706.82C322.52 726.75 318.12 746.69 313.69 766.76C316.04 767.29 317.86 767.7 319.73 768.13C324.9 750.86 334.97 737.23 347.95 725.56C358.69 715.91 370.75 708.28 383.87 702.3C401.94 694.06 420.85 689.2 440.74 688.4C453.97 687.87 467 689.13 479.74 692.9C480.29 692.19 480.77 691.56 481.23 690.97C496.98 695.84 517.33 707.7 520.22 713.24C515.81 713.24 511.07 712.99 506.36 713.29C492 714.2 478.63 718.77 465.91 725.18C434.27 741.14 409.79 764.79 391.74 795.18C381.69 812.1 374.63 830.06 372.51 849.83C370.46 868.87 370.1 887.91 370.5 907Z" fill="white" stroke="black"/>
<path d="M557.5 907C496.17 907 434.83 907 373.5 907C373.47 899.42 373.38 891.84 373.43 884.26C373.53 870.42 374.49 856.64 376.55 842.95C378.72 828.52 384.09 815.21 391.07 802.54C410.74 766.83 438.6 739.85 476.39 723.84C490.79 717.74 505.77 714.03 521.65 717.21C522.22 717.32 522.89 716.96 523.71 716.77C523.81 716.88 524.1 717.17 524.37 717.48C530.33 724.4 533.52 732.69 535.92 741.32C543.36 768.04 546.78 795.46 549.96 822.91C551.82 838.95 553.31 855.04 554.77 871.12C555.84 883.08 556.6 895.04 557.5 907Z" fill="white" stroke="black"/>
<path d="M701.5 907C691.83 907 682.17 907 672.5 907C670.17 904.08 667.73 901.24 665.54 898.22C661 891.96 656.58 885.62 652.14 879.28C650.7 877.22 650.85 875.18 652.77 873.51C656.46 870.31 660.23 867.19 664.66 863.45C665.52 864.71 666.08 865.64 666.75 866.49C669.69 870.22 672.6 873.97 675.63 877.62C678.33 880.89 681.12 884.09 683.98 887.22C685.72 889.13 687.78 889.44 689.98 887.83C691.66 886.6 693.46 885.53 695.07 884.22C709.17 872.65 723.36 861.19 737.26 849.39C747.16 840.98 756.64 832.09 766.33 823.44C768.18 821.79 768.52 819.91 767.27 817.87C765.58 815.11 763.87 812.34 761.92 809.76C758.46 805.18 754.85 800.7 751.21 796.26C749.79 794.54 749.89 793.25 751.6 791.88C753.87 790.06 756 788.05 758.32 786.31C765.23 781.13 765.41 781.04 770.73 787.71C785.16 805.81 799.46 824.02 813.77 842.21C815.41 844.3 816.87 846.55 818.2 848.85C818.56 849.47 818.48 850.87 818.02 851.36C813.3 856.35 807.59 860.05 801.42 864.06C794.83 855.8 788.36 847.7 781.82 839.51C781.09 840.1 780.37 840.65 779.68 841.23C762.2 855.9 744.71 870.56 727.24 885.25C718.66 892.47 710.09 899.75 701.5 907Z" fill="white" stroke="black"/>
<path d="M97.5001 907C91.6701 907 85.8301 907 80.0001 907C79.4201 906.73 78.8501 906.42 78.2601 906.18C70.7301 903.09 63.0501 900.32 55.7201 896.82C48.3401 893.3 41.4801 888.8 36.3601 882.19C29.1801 872.94 33.8501 859.43 45.2701 856.47C50.8401 855.02 56.2401 856.12 61.3201 858.44C65.2901 860.25 69.0401 862.56 72.8801 864.65C72.8801 864.33 72.9001 863.86 72.8801 863.39C72.6001 857.83 71.8501 852.24 72.1701 846.71C72.4201 842.4 73.5501 837.99 75.1301 833.95C76.7401 829.82 80.2501 828.41 84.3701 830.07C87.5101 831.34 90.6401 833.24 93.0501 835.6C97.3201 839.79 99.2501 845.41 100.46 851.17C104.42 870.03 102.37 888.6 97.5001 907Z" fill="white" stroke="black"/>
<path d="M560.5 907C559.61 895.12 558.87 883.24 557.8 871.38C556.34 855.29 554.67 839.22 553.01 823.16C552.35 816.79 551.45 810.44 550.67 804.07C550.57 803.25 550.52 802.43 550.85 801.4C551.29 802.19 551.75 802.97 552.17 803.77C566.7 831.18 581.62 858.4 593.62 887.08C596.38 893.67 598.88 900.37 601.5 907.01C587.83 907 574.17 907 560.5 907Z" fill="white" stroke="black"/>
<path d="M594.69 477.82C586.56 472.54 577.92 472.57 569.31 474.2C566.24 474.78 563.35 476.99 560.68 478.89C558.7 480.3 557.73 482.63 558.91 485.1C560.1 487.57 562.51 487.67 564.77 487.27C568.12 486.68 571.51 486.04 574.71 484.95C581.24 482.72 587.51 484.41 594.06 485.5C594.13 491.37 591.75 496.21 588.76 500.98C584.3 495.49 578.79 491.68 571.92 490.9C562.68 489.86 554.41 492.8 547.9 499.5C544.03 503.49 543.85 508.71 545.31 513.84C547.9 522.95 550.78 531.98 553.38 541.09C554.77 545.96 555.9 550.91 557.06 555.84C558.64 562.55 554.6 569 545.14 568.11C541.89 567.81 538.66 566.22 535.65 564.75C532.98 563.45 530.66 561.45 528.13 559.86C526.16 558.62 524.04 558.21 521.68 558.86C520.1 559.29 518.39 559.46 516.74 559.46C508.93 559.46 504.45 553.67 506.94 546.24C508.18 542.56 510.54 539.25 512.59 535.41C512.43 535.32 511.64 534.87 510.66 534.3C508.85 536.27 506.66 538.62 504.49 540.99C493.95 552.55 480.89 560.16 466.15 564.88C461.75 566.29 458.74 568.75 456.07 572.35C449.11 581.74 447.14 592.37 447.44 603.9C448.37 603.9 449.22 603.9 450.38 603.9C450.1 591.44 452.5 579.87 462.07 570.09C467.47 593.29 480.63 608.74 504.4 613.36C510.91 614.63 517.6 615.74 524.19 615.66C535.9 615.53 544.09 608.84 549.89 599.18C552.05 595.58 553.43 591.51 555.05 587.61C556.48 584.17 558.1 580.76 559 577.18C559.76 574.18 559.61 570.95 559.87 567.65C558.77 567.54 558.07 567.47 557.36 567.4C557.38 567.2 557.35 566.99 557.43 566.89C560.72 562.81 561 558.13 559.69 553.38C556.85 543.12 553.73 532.95 550.8 522.71C549.68 518.8 548.66 514.84 547.83 510.86C547.49 509.22 547.77 507.45 547.77 505.58C552.63 507.2 557.1 508.66 561.55 510.19C569.13 512.79 576.31 511.68 583.23 507.98C583.59 507.79 583.97 507.61 584.35 507.44C584.41 507.41 584.51 507.45 585.24 507.51C585.24 511.97 585.15 516.5 585.26 521.02C585.43 528.26 585.74 535.5 585.98 542.74C586.22 549.94 583.85 556.39 579.82 562.16C570.11 576.08 560.2 589.87 550.36 603.7C546.26 609.46 542.19 615.26 537.98 620.94C533.89 626.47 531.06 632.42 530.53 639.41C530.13 644.69 527.26 648.66 523.17 651.94C515.3 658.27 506.36 659.01 496.91 657.27C480.48 654.25 465.13 648.13 450.4 640.47C447.33 638.87 444.57 636.26 442.3 633.58C430.01 619.12 419.42 603.41 411.38 586.26C407.26 577.47 404.67 567.8 402.53 558.27C399.91 546.61 398.79 534.61 396.48 522.87C393.67 508.6 397.09 495.35 402.05 482.27C405.91 472.09 409.72 461.88 413.96 451.86C421.13 434.9 433.62 423.35 450.6 416.34C465.07 410.37 479.3 403.87 492.31 395.02C495.2 393.06 498.23 391.19 500.72 388.78C503.42 386.16 506.33 383.28 507.78 379.93C510.69 373.21 515.43 368.58 522.11 366.61C543.28 360.37 563.12 363.29 580.87 376.88C587.98 382.32 591.09 390.24 592.98 398.7C596.18 413.03 596.74 427.59 596.45 442.18C596.22 453.58 595.46 464.98 594.92 476.37C594.9 476.77 594.79 477.15 594.69 477.82ZM457.71 466.93C462.86 466.16 467.78 465.32 472.73 464.73C479.82 463.88 486.95 462.56 493.97 465.19C503.35 468.71 512.41 472.82 520.36 479.07C522.31 480.6 524.41 482.01 526.6 483.17C529.54 484.73 531.82 484.13 533.37 481.74C534.83 479.5 534.39 475.99 532.11 474.35C525.77 469.79 519.5 465.08 512.86 461C506.09 456.84 498.71 453.94 490.61 453.47C478.02 452.73 467.26 457.65 456.95 464.36C457.19 465.16 457.42 465.94 457.71 466.93ZM503.83 503.27C506.73 503 509.64 502.83 512.51 502.39C513.2 502.28 514.26 501.27 514.27 500.66C514.39 494.05 512.58 488.13 507.26 483.78C502.15 479.6 496.29 477.11 489.66 477.05C477.69 476.94 467.42 481.93 457.61 488.17C456.35 488.97 454.65 489.91 455.55 491.6C456.06 492.56 457.7 493.27 458.92 493.45C468.31 494.82 477.66 496.38 486.54 499.89C492.1 502.07 497.83 503.18 503.83 503.27ZM576.35 517.34C569.45 519.28 563.02 518.16 556.64 515.46C556.26 516.54 555.98 517.35 555.67 518.22C562.69 521.3 569.64 522.33 577.03 520.2C576.82 519.28 576.63 518.49 576.35 517.34ZM489.56 507.23C483.01 505.16 476.83 503.21 470.55 501.23C470.27 501.98 469.98 502.78 469.67 503.62C476.06 506.51 482.32 508.74 489.23 509.56C489.36 508.58 489.48 507.78 489.56 507.23Z" fill="white" stroke="black"/>
<path d="M347.6 260.92C349.37 263.55 350.99 265.94 352.71 268.5C348.51 276.04 346.32 284.44 345.16 293.16C344.6 297.34 345.04 301.16 348.45 304.11C344.51 309.37 340.74 314.64 336.72 319.71C332.15 325.47 328.92 331.88 326.94 338.91C324.37 348.02 321.94 357.17 319.42 366.3C319.14 367.33 318.74 368.35 318.26 369.31C310.83 383.82 303.4 398.33 295.85 412.78C295.33 413.78 294.01 414.61 292.88 415.01C273.63 421.78 255.28 430.32 238.88 442.63C229.81 449.43 221.79 457.23 216.72 467.61C216.62 467.82 216.41 467.98 215.82 468.65C217.32 461.69 218.61 455.29 220.08 448.93C226.94 419.35 234.58 389.99 244.49 361.26C248.29 350.26 252.05 339.2 257.97 329.11C265.71 315.92 276.46 305.39 288.31 295.93C305.97 281.82 325.39 270.62 346.04 261.52C346.57 261.29 347.12 261.11 347.6 260.92Z" fill="white" stroke="black"/>
<path d="M302.91 731.8C302.05 726.39 301.13 721.67 300.56 716.92C297.87 694.69 294.81 672.5 292.77 650.21C290.14 621.49 289.89 592.67 291.32 563.84C293.63 517.32 301.02 471.52 310.33 425.98C312.18 416.94 314.11 407.91 316.01 398.88C316.09 398.5 316.23 398.14 316.58 397.77C317.12 414.58 320.02 431.04 323.21 447.44C314.15 449.87 307.66 460.36 308.49 472.8C308.89 478.89 309.98 485.05 311.67 490.92C315.48 504.09 319.65 517.17 324.13 530.12C325.79 534.92 328.5 539.41 331.13 543.8C332.96 546.86 336.08 548.63 339.44 549.91C340.13 550.17 340.99 551.17 341 551.85C341.35 570.33 341.88 588.82 341.79 607.3C341.66 632.28 337.89 656.88 332.75 681.28C331.52 687.14 330.32 693.01 328.89 698.82C328.55 700.21 327.66 701.74 326.55 702.63C317.45 709.92 310.25 718.76 304.6 728.91C304.17 729.67 303.71 730.42 302.91 731.8Z" fill="white" stroke="black"/>
<path d="M229.08 835.81C225.57 801.47 224.35 767.64 225.79 733.7C227.47 694.38 233.89 655.8 242.46 617.45C246.02 601.49 247.82 585.11 249.91 568.86C251.68 555.16 252.71 541.36 254.11 527.62C254.22 526.57 254.61 525.52 255 524.52C268.73 489.99 282.47 455.46 296.22 420.93C296.51 420.2 296.86 419.5 297.57 418.93C296.15 424.03 294.7 429.13 293.32 434.24C285.18 464.31 278.82 494.77 274.56 525.61C271.25 549.51 268.36 573.5 266.23 597.53C263.21 631.58 262.58 665.73 264.59 699.88C265.63 717.59 267.54 735.22 270.62 752.71C270.76 753.49 270.6 754.57 270.13 755.16C257.25 771.46 248.54 790.04 240.55 809.02C236.97 817.53 233.44 826.05 229.87 834.56C229.76 834.85 229.54 835.1 229.08 835.81Z" fill="white" stroke="black"/>
<path d="M472.12 687.68C458.84 685.14 445.45 684.42 432.08 686.07C391.6 691.06 356.91 707.22 330.95 739.66C325.47 746.51 321.44 754.26 317.96 762.44C318.07 761.72 318.16 761.01 318.28 760.29C318.42 759.47 318.58 758.65 318.76 757.84C323.74 735.6 328.76 713.37 333.71 691.12C338.87 667.94 342.94 644.59 344.34 620.84C344.68 615.02 344.74 609.19 344.92 603.36C344.95 602.49 344.92 601.62 344.92 600.63C347.3 606.39 349.34 612.09 351.97 617.5C355.56 624.89 360.53 631.18 368.17 634.9C377.46 639.44 383.41 637.24 387.12 627.59C390.78 618.08 391.14 608.1 390.75 598.06C390.67 596.01 390.53 593.97 390.66 591.84C398.5 611.94 409.25 630.26 423.06 646.76C436.9 663.34 453.09 677.15 472.12 687.68Z" fill="white" stroke="black"/>
<path d="M386.28 539.82C382.08 530.53 378.08 521.95 374.29 513.27C364.63 491.15 356.09 468.64 350.35 445.12C341.9 410.48 342.13 375.85 350.32 341.25C353 329.94 356.48 318.81 359.54 307.59C360.02 305.84 360.98 304.77 362.56 303.93C365.93 302.14 369.2 300.18 372.88 298.08C372.68 301.04 372.54 303.64 372.34 306.23C370.36 331.72 370.31 357.13 375.5 382.33C379.12 399.94 385.09 416.75 392.9 432.89C397.06 441.49 401.61 449.91 406.11 458.35C406.87 459.77 406.84 460.85 406.32 462.28C402.6 472.51 398.82 482.72 395.35 493.03C392.47 501.59 392.01 510.48 392.68 519.44C392.74 520.25 392.84 521.15 392.58 521.89C390.62 527.63 388.57 533.34 386.28 539.82Z" fill="white" stroke="black"/>
<path d="M290.44 807.21C289.44 804.97 288.41 802.74 287.44 800.48C279.94 782.91 275.54 764.49 272.53 745.71C265.89 704.21 265.49 662.44 267.63 620.59C269.59 582.3 273.97 544.26 280.57 506.49C286.61 471.96 294.31 437.82 305.35 404.49C308.37 395.36 312.47 386.79 317.4 378.51C316.06 384.62 314.72 390.73 313.38 396.84C306.28 429.19 299.86 461.68 295.12 494.46C288.87 537.59 286.12 580.93 288.08 624.51C289.4 653.99 292.41 683.3 296.87 712.46C298.02 719.95 299.26 727.42 300.35 734.92C300.52 736.08 300.34 737.44 299.88 738.53C291.93 757.57 289.33 777.46 290.26 797.93C290.33 799.51 290.41 801.09 290.52 802.67C290.62 804.13 290.76 805.59 290.89 807.05C290.75 807.1 290.6 807.15 290.44 807.21Z" fill="white" stroke="black"/>
<path d="M441.57 259.7C442.38 257.82 443.12 256.09 443.95 254.18C454.82 252.83 465.96 252.54 477.11 253.1C494.53 253.98 511.43 257.33 527.47 264.43C553.62 276 572.62 294.96 584.93 320.62C596.2 344.1 600.51 368.93 598.43 394.88C598.27 396.87 597.97 398.85 597.71 400.83C597.63 401.44 597.46 402.04 597.18 403.37C596.28 399.73 595.6 396.76 594.8 393.82C590.72 378.89 580.24 370.24 566.31 365.1C562.97 363.87 559.49 362.9 556 362.2C554.13 361.83 553.42 361.06 552.94 359.3C549.3 345.94 544.55 333.02 537.67 320.93C527.63 303.28 513.38 290.05 495.64 280.39C479.32 271.5 461.82 265.69 444.08 260.5C443.24 260.26 442.41 259.97 441.57 259.7Z" fill="white" stroke="black"/>
<path d="M294.11 418.12C273.98 468.7 253.94 519.05 233.65 570.03C231.72 565.19 229.96 560.93 228.32 556.61C222.22 540.55 217.19 524.2 214.77 507.14C213.18 495.93 212.68 484.74 216.01 473.72C216.34 472.63 216.11 470.82 218.24 471.12C218.41 471.14 218.72 470.5 218.89 470.12C223.36 460.08 230.87 452.57 239.39 446.02C255.65 433.51 273.96 424.87 293.23 418.13C293.37 418.08 293.54 418.12 294.11 418.12Z" fill="white" stroke="black"/>
<path d="M406.03 279.3C408.43 277.77 411.03 276.7 412.79 274.83C415.08 272.41 417.94 271.28 420.75 269.95C421.38 269.65 422.42 269.63 423.01 269.95C438.37 278.39 453.15 287.67 465.76 300.02C480.81 314.75 489.83 332.81 494.35 353.12C496.61 363.25 497.89 373.6 499.53 383.87C499.66 384.7 499.41 386.01 498.84 386.48C491.04 392.91 482.32 397.89 473.12 402.84C454.99 359.22 432.66 318.14 406.03 279.3Z" fill="white" stroke="black"/>
<path d="M550.52 360.97C544.32 360.97 538.73 360.64 533.2 361.05C525.55 361.61 518.31 363.7 512.23 368.79C509.29 371.25 507.02 374.12 505.6 377.69C504.94 379.35 503.99 380.89 502.59 382.35C501.9 377.64 501.27 372.92 500.5 368.22C497.8 351.54 493.54 335.36 485.2 320.48C475.89 303.88 462.41 291.32 446.8 280.87C439.96 276.3 432.87 272.1 425.61 267.55C429.48 265.68 433.29 263.81 437.14 262.02C437.6 261.81 438.3 261.97 438.84 262.13C455.57 266.89 472.07 272.23 487.86 279.69C516.06 293.01 534.72 314.67 544.93 343.9C546.87 349.46 548.6 355.09 550.52 360.97Z" fill="white" stroke="black"/>
<path d="M388.91 288.93C389.63 294.94 390.26 300.69 391.02 306.44C393.44 324.78 396.69 342.94 403.09 360.4C411.01 382 424.77 399.16 442.9 413.02C443.69 413.63 444.47 414.25 445.25 414.87C445.31 414.92 445.33 415.01 445.61 415.5C427.11 423.32 415.94 437.98 408.51 456.7C406.01 452.07 403.81 448.1 401.71 444.08C391.67 424.84 383.4 404.92 378.82 383.61C374.7 364.44 373.51 345.03 374.31 325.49C374.68 316.42 375.43 307.37 375.92 298.31C376 296.81 376.5 295.9 377.83 295.19C381.48 293.21 385.05 291.11 388.91 288.93Z" fill="white" stroke="black"/>
<path d="M403.35 280.68C430.07 319.69 452.39 360.65 470.46 404.28C463.49 407.37 456.61 410.47 449.66 413.42C449.09 413.66 447.98 413.01 447.3 412.53C423.35 395.4 408.08 372.44 401 343.88C396.86 327.19 394.57 310.23 392.32 293.22C391.66 288.23 393 285.69 397.38 283.98C399.44 283.18 401.29 281.85 403.35 280.68Z" fill="white" stroke="black"/>
<path d="M383.39 561.62C380.74 555.94 378.47 550.49 375.7 545.3C373.04 540.32 369.83 535.64 366.96 530.77C366.46 529.93 366.09 528.78 366.22 527.85C367.64 517.29 365.08 512.01 355.65 506.67C351.67 504.42 347.52 502.46 343.59 500.13C338.56 497.14 337.83 494.65 340.85 489.65C342.55 486.84 344.83 484.33 347.14 481.97C351.38 477.64 352.03 473.95 348.95 468.76C345.28 462.58 341.3 456.58 335.53 452.15C333.21 450.37 330.29 449.39 327.7 447.93C327.02 447.54 326.21 446.81 326.07 446.11C322.16 426.65 319.03 407.12 319.9 387.14C320.21 380.01 322.41 373.2 323.13 366.23C324.29 354.94 328.13 344.52 332 334.09C333.56 329.88 336.16 325.99 338.72 322.24C342.05 317.36 345.84 312.81 349.34 308.05C350.48 306.5 351.56 305.48 353.65 306.35C354.45 306.68 355.44 306.52 356.67 306.61C355.82 309.4 355.01 312.06 354.19 314.72C347.86 335.47 343.2 356.57 341.6 378.25C339.82 402.22 342.36 425.81 348.23 449.07C354.57 474.17 364.15 498.09 374.71 521.65C377.8 528.56 381.08 535.38 384.23 542.26C384.54 542.94 384.82 543.97 384.54 544.54C381.8 549.94 382.84 555.58 383.39 561.62Z" fill="white" stroke="black"/>
<path d="M310.96 472.37C311.28 465.96 312.7 460.11 316.82 455.07C320.87 450.13 325.78 449.21 331.15 452.62C336.99 456.33 341.02 461.75 344.65 467.47C349.3 474.79 349.1 475.48 343.12 481.72C341.07 483.86 339.21 486.31 337.82 488.91C334.68 494.75 335.79 498.78 341.38 502.28C344.69 504.35 348.27 505.97 351.65 507.93C354.16 509.38 356.7 510.87 358.96 512.67C363.57 516.36 364.77 521.67 362.71 527.26C361.44 530.69 360.38 534.2 359.22 537.67C357.43 543.02 353.38 545.97 348.16 546.99C340.85 548.43 334.8 545.97 331.49 539.11C328.72 533.38 326.44 527.37 324.44 521.32C320.52 509.48 316.81 497.58 313.32 485.61C312.06 481.33 311.71 476.79 310.96 472.37Z" fill="white" stroke="black"/>
<path d="M348.05 232.58C348.25 235.06 348.58 237.27 348.57 239.48C348.54 244.7 348.35 249.91 348.23 255.13C348.19 256.92 347.23 257.8 345.58 258.51C326.84 266.54 309.23 276.56 292.81 288.66C279.68 298.34 267.75 309.27 258.08 323.15C258.08 322.11 258.03 321.52 258.09 320.95C258.17 320.29 258.35 319.65 258.49 319C261.21 305.74 265.04 292.87 271.72 280.99C280.51 265.33 293.6 254.37 309.5 246.52C321.87 240.42 334.9 236.18 348.05 232.58Z" fill="white" stroke="black"/>
<path d="M358.58 301.41C358.38 303.56 356.42 303.61 354.42 303.43C350.85 303.1 347.83 300.32 348.03 296.94C348.79 284.3 351.82 272.36 360.75 262.84C368.89 254.16 379.53 252.35 390.8 253.26C398.22 253.86 404.76 256.89 410.42 261.72C415 265.63 414.59 270.68 409.34 273.72C398.26 280.15 387.11 286.47 375.99 292.83C371.85 295.2 367.75 297.64 363.55 299.89C362.22 300.62 360.61 300.81 358.58 301.41Z" fill="white" stroke="black"/>
<path d="M470.55 683.18C467.48 681.28 464.31 679.54 461.36 677.47C424.05 651.27 399.3 616.3 388.32 571.93C386.73 565.52 386.5 558.77 385.68 552.16C385.59 551.44 385.66 550.63 385.9 549.95C388.44 542.66 391.03 535.4 394.01 528.13C394.64 532.42 395.24 536.72 395.9 541.01C400.91 573.66 412.93 603.61 430.63 631.4C442.07 649.37 455.38 665.87 469.79 681.52C470.16 681.92 470.5 682.34 470.86 682.75C470.75 682.9 470.65 683.04 470.55 683.18Z" fill="white" stroke="black"/>
<path d="M361.54 541.87C369.08 550.91 374.43 561.45 376.8 573.32C379.37 586.23 381.1 599.28 380.44 612.49C380.26 616.01 379.49 619.57 378.48 622.95C377.59 625.92 375.69 626.76 373.06 625.21C370.57 623.74 367.88 621.77 366.54 619.33C362.86 612.67 359.53 605.77 356.64 598.73C351.94 587.31 351.39 575.1 350.9 562.96C350.75 559.31 351.01 555.64 351.02 551.99C351.03 550.26 351.69 549.3 353.28 548.31C356.19 546.49 358.74 544.09 361.54 541.87Z" fill="white" stroke="black"/>
<path d="M354.53 265.44C351.22 262.37 350.38 259.01 351.3 254.83C352.6 248.93 352.4 242.92 351.28 236.97C350.76 234.18 351.45 231.64 353.78 230.1C362.17 224.56 371.12 220.52 381.5 221.04C389.97 221.47 397.73 224.43 405.27 228.02C407.69 229.17 407.66 230.08 406.64 232.67C404.11 239.06 400.31 244.5 395.24 249.13C393.97 250.29 392.85 250.42 391.25 250.3C378.81 249.32 367.36 251.58 358.29 260.99C356.97 262.36 355.83 263.88 354.53 265.44Z" fill="white" stroke="black"/>
<path d="M503.39 546.33C503.39 547.38 503.42 547.94 503.39 548.49C502.87 556.59 507.72 562.09 515.85 562.43C517.82 562.51 519.89 562.39 521.79 561.89C524.04 561.3 525.88 561.82 527.68 563.02C529.34 564.13 530.98 565.26 532.62 566.41C540.15 571.73 547.97 573.33 556.77 567.91C556.61 571.28 556.47 574.27 556.35 576.74C554.21 576.87 552.58 577.01 550.95 577.06C545.42 577.26 540.06 578.29 534.87 580.26C534.27 580.49 533.37 580.4 532.77 580.12C522.83 575.53 512.25 573.25 501.5 572.03C491.92 570.95 482.26 570.66 472.63 569.96C470.44 569.8 468.28 569.37 466.02 568.65C479.81 563.53 492.7 557.12 503.39 546.33Z" fill="white" stroke="black"/>
<path d="M416.5 268.55C416.9 264.17 415.01 261.18 411.86 259.12C407.33 256.16 402.59 253.51 397.92 250.71C402.85 246.34 406.63 240.47 409.43 233.88C410.47 231.43 412.58 230.71 415.23 231.2C427.45 233.46 435.29 240.95 440.1 252.03C441.35 254.92 439.68 257.4 436.78 258.55C433.15 259.99 429.78 262.1 426.27 263.86C423.17 265.41 420.02 266.87 416.5 268.55Z" fill="white" stroke="black"/>
<path d="M364.91 532.42C368.1 538.04 371.54 543.53 374.41 549.31C381.05 562.65 385.78 576.63 387.26 591.56C388.31 602.15 388.3 612.69 385.48 623.05C384.83 625.43 383.84 627.78 382.64 629.94C380.42 633.91 377.78 634.85 373.4 633.66C365.95 631.63 360.88 626.6 356.96 620.29C351.08 610.82 347.89 600.36 346.02 589.45C343.97 577.49 343.7 565.43 344.01 553.34C344.1 549.87 344.2 549.8 348.02 550.48C348.02 556.16 347.9 561.89 348.04 567.6C348.48 585.4 352.97 602.12 361.75 617.62C363.29 620.34 365.46 622.71 367.46 625.15C368.12 625.96 369.09 626.58 370 627.14C375.54 630.48 379.89 628.95 381.83 622.8C382.65 620.2 383.26 617.44 383.36 614.74C383.98 597.16 382.4 579.79 376.94 562.98C374.11 554.28 369.4 546.53 363.52 539.49C362.92 538.78 362.76 537.44 362.87 536.46C363.02 535.17 363.66 533.94 364.09 532.68C364.35 532.58 364.63 532.5 364.91 532.42Z" fill="white" stroke="black"/>
<path d="M554.07 580.78C552.86 583.51 551.74 585.86 550.78 588.27C550.48 589.03 550.58 589.94 550.49 590.79C550.45 591.19 550.48 591.63 550.33 591.98C545.82 601.97 539.39 610.17 528 612.22C523.13 613.1 517.87 612.44 512.87 611.87C504.82 610.95 497.06 608.81 489.76 605.09C477.6 598.89 470.84 588.59 467 575.6C482.25 593.85 502.31 600.84 524.92 602.18C531.44 602.57 536.86 599.66 541.28 595.34C545.74 590.94 549.59 585.92 554.07 580.78Z" fill="white" stroke="black"/>
<path d="M543.18 589.53C537.29 595.32 531.59 599.83 523.07 599.12C508.3 597.88 494.44 594.1 482.1 585.63C477.7 582.61 473.77 579.09 470.51 574.86C470.61 574.64 470.7 574.42 470.8 574.2C475.66 575.67 480.67 576.77 485.36 578.68C497.81 583.75 510.43 588.21 523.85 589.6C529.59 590.19 535.45 589.64 541.25 589.61C541.7 589.61 542.16 589.58 543.18 589.53Z" fill="white" stroke="black"/>
<path d="M480.89 573.79C498.63 574.05 516.09 575.85 532.49 583.36C533.37 583.76 534.7 583.4 535.76 583.14C540.24 582.04 544.69 580.85 549.28 580.02C548.51 582.88 547.3 584.89 544.5 585.75C537.88 587.77 531.17 587.6 524.45 586.76C511.56 585.17 499.31 581.21 487.37 576.23C485.24 575.35 483.05 574.6 480.89 573.79Z" fill="white" stroke="black"/>
<path d="M584.37 502.11C579.72 507.19 573.21 509.44 567.66 507.87C568.24 505.83 569.05 503.83 569.33 501.75C569.62 499.63 569.39 497.45 569.39 495.3C573.71 494 580.56 497.12 584.37 502.11Z" fill="white" stroke="black"/>
<path d="M448.6 652.53C441.25 641.6 433.9 630.67 426.55 619.74C426.82 619.55 427.08 619.35 427.35 619.16C427.98 620.01 428.59 620.87 429.24 621.7C433.62 627.25 437.5 633.32 442.57 638.15C446.17 641.58 448.52 644.94 448.87 649.79C448.93 650.6 449.19 651.4 449.36 652.2C449.11 652.31 448.85 652.42 448.6 652.53Z" fill="white" stroke="black"/>
<path d="M181.47 523.47C162.28 520.84 143.33 518.25 123.88 515.59C130.5 545.82 137.05 575.79 143.61 605.76C143.44 605.84 143.27 605.92 143.1 606C110.61 560.44 78.12 514.88 45.23 468.76C59.06 470.53 72.21 472.21 85.87 473.95C74.62 448.05 63.53 422.5 52.26 396.56C54.15 396.68 55.62 396.79 57.09 396.85C77.56 397.74 98.03 398.62 118.51 399.51C121.67 399.65 124.83 399.9 128 399.91C129.57 399.92 130.33 400.48 130.93 401.93C138.82 420.98 146.78 440 154.71 459.03C163.38 479.82 172.05 500.62 180.72 521.42C180.95 522 181.15 522.61 181.47 523.47Z" fill="white" stroke="black"/>
<path d="M652.08 299.13C664.45 288.74 676.27 278.8 688.24 268.74C681.41 254.7 674.63 240.77 667.85 226.84C667.98 226.71 668.11 226.59 668.24 226.46C681.38 234.66 694.53 242.86 707.8 251.14C719.1 240.24 730.34 229.4 742.07 218.09C738.14 233.91 734.37 249.05 730.58 264.3C744.34 271.63 757.98 278.89 771.62 286.14C771.61 286.34 771.6 286.54 771.6 286.73C756.19 287.82 740.77 288.92 725.12 290.03C722.4 305.41 719.68 320.74 716.97 336.07C716.82 336.09 716.68 336.11 716.53 336.13C714.37 330.84 712.2 325.56 710.06 320.26C706.67 311.86 703.23 303.48 699.96 295.03C699.24 293.16 698.3 292.77 696.44 293.05C682.77 295.06 669.09 296.97 655.41 298.9C654.54 299.02 653.66 299.02 652.08 299.13Z" fill="white" stroke="black"/>
<path d="M667.61 568.95C674.96 575.67 682.08 582.18 689.2 588.7C694.73 593.76 700.27 598.8 705.72 603.95C706.31 604.51 706.74 605.85 706.51 606.59C697.78 634.96 688.97 663.3 680.17 691.65C680.06 692.01 679.92 692.37 679.67 693.08C670.53 683.02 661.6 673.2 652.4 663.08C642.62 681.77 633.02 700.13 623.42 718.49C623.26 718.44 623.1 718.4 622.94 718.35C625.83 680.66 628.71 642.96 631.65 604.57C638.29 611.73 644.47 618.4 650.96 625.39C656.55 606.42 662.04 587.82 667.61 568.95Z" fill="white" stroke="black"/>
<path d="M148.06 147.38C141.43 147.38 135.04 147.38 128.52 147.38C130.04 136.98 131.55 126.71 133.09 116.15C127.16 116.15 121.51 116.13 115.85 116.16C113.45 116.17 110.28 115.41 108.87 116.63C107.46 117.84 107.76 121.09 107.41 123.46C106.25 131.37 105.14 139.28 103.99 147.34C97.4801 147.34 91.0301 147.34 84.3101 147.34C85.0501 142.24 85.7601 137.24 86.5001 132.24C89.2901 113.13 92.0701 94.03 94.9501 74.9299C95.0901 74.0099 95.9801 72.7 96.7701 72.48C100.01 71.55 103.34 70.46 106.65 70.4C111.51 70.31 113.99 73.2599 113.58 78.1399C113.19 82.8598 112.38 87.55 111.74 92.25C111.32 95.36 110.88 98.4598 110.4 101.85C111.85 101.85 113 101.85 114.16 101.85C119.41 101.85 124.66 101.85 129.91 101.85C135.33 101.85 135.26 101.84 136 96.3498C136.97 89.0898 138.03 81.8398 139.13 74.5998C139.24 73.8998 139.81 72.8498 140.37 72.6998C143.78 71.7798 147.24 70.4898 150.71 70.4198C155.92 70.3098 158.55 73.83 157.85 79.01C156.89 86.1 155.85 93.1798 154.84 100.27C152.71 115.18 150.59 130.1 148.45 145.01C148.37 145.73 148.22 146.46 148.06 147.38Z" fill="white" stroke="black"/>
<path d="M332.19 128.33C339.2 132.94 346.54 134.46 354.41 133.49C355.63 133.34 356.87 132.99 357.98 132.47C362.8 130.2 363.49 124.46 359.14 121.4C356.8 119.75 354.03 118.65 351.36 117.54C347.1 115.76 343.15 113.6 339.84 110.3C331.46 101.95 331.35 79.5101 347.93 73.0601C361.08 67.9501 373.66 69.6501 385.99 77.2401C382.79 81.3401 379.76 85.2201 376.99 88.7801C373.28 87.5401 369.92 85.9601 366.41 85.3901C363.85 84.9801 360.86 85.3901 358.44 86.3601C354.28 88.0301 353.69 92.6101 357.23 95.3701C359.54 97.1601 362.48 98.1301 365.09 99.5501C368.86 101.61 372.99 103.26 376.27 105.94C385.82 113.75 384.27 129.51 377.75 137.49C373.05 143.25 366.79 146.31 359.65 147.66C348.73 149.73 338.3 148.71 328.7 142.52C326.64 141.19 326.07 140.04 327.42 137.77C329.2 134.79 330.58 131.57 332.19 128.33Z" fill="white" stroke="black"/>
<path d="M647.58 95.9598C645.71 105.95 642.48 115.09 638.59 124.03C632.78 137.37 625.71 149.95 615.98 160.88C611.43 165.99 606.39 170.55 599.88 173.66C597.73 169.62 595.64 165.69 593.57 161.8C596.42 159.68 599.37 157.8 601.93 155.5C604.44 153.24 606.57 150.56 609.05 147.87C608.14 147.47 607.65 147.2 607.12 147.03C603.49 145.88 601.46 143.4 600.91 139.67C599.1 127.41 597.29 115.14 595.49 102.88C595.13 100.41 594.78 97.9498 594.38 95.2198C599.36 93.5298 604.31 92.2798 609.5 93.7398C613.5 94.8698 615.49 97.6698 615.5 102.18C615.53 111.59 615.46 120.99 615.44 130.4C615.44 131.31 615.44 132.22 615.44 133.3C616.32 133.53 617.16 133.75 618.15 134.02C623.83 120.97 626.92 107.3 629.91 93.3498C635.83 94.2098 641.55 95.0598 647.58 95.9598Z" fill="white" stroke="black"/>
<path d="M717.28 494.34C715.87 488.47 714.21 482.64 713.12 476.72C710.76 463.9 709.74 450.97 711 437.95C711.85 429.19 713.53 420.64 718.13 412.97C721.46 407.42 726.02 403.34 732.53 401.86C737.2 400.8 740.6 402.33 742.94 406.61C745.53 411.33 746.38 416.54 746.43 421.79C746.5 428.34 746.09 434.9 745.88 441.69C746.58 441.21 747.42 440.65 748.25 440.08C754.67 435.72 761.59 432.6 769.38 431.75C782.81 430.29 790.12 439.39 792.31 449.01C793.28 453.3 791.5 457.21 789.01 460.7C784.61 466.85 778.68 471.29 772.26 475.07C755.66 484.82 737.84 491.23 718.81 494.2C718.49 494.24 718.16 494.26 717.28 494.34Z" fill="white" stroke="black"/>
<path d="M440.52 146.36C437.33 147.03 433.75 148.14 430.09 148.48C425.03 148.96 422.2 146.07 422.05 140.92C421.99 138.78 422.04 136.63 421.58 134.29C420.88 135.44 420.18 136.59 419.47 137.73C416.68 142.26 413.58 146.46 408.11 148.02C398.55 150.75 391.51 145.82 391.62 135.93C391.69 129.89 392.72 123.86 393.5 117.84C394.38 110.99 395.44 104.17 396.45 97.34C396.54 96.74 396.78 95.8 397.18 95.66C401.41 94.14 405.7 92.55 410.28 93.31C414.1 93.94 415.42 95.72 414.98 99.62C414.42 104.58 413.49 109.49 412.78 114.43C412.1 119.2 411.39 123.98 410.89 128.77C410.65 131.08 411.01 133.33 413.81 134.15C416.2 134.85 419.18 134.09 420.26 131.62C421.87 127.93 423.17 124.01 423.93 120.07C425.37 112.64 426.28 105.11 427.56 97.65C427.71 96.75 428.64 95.54 429.47 95.29C432.39 94.38 435.4 93.54 438.43 93.2C444.27 92.56 446.75 95.21 445.92 100.97C444.57 110.36 443.12 119.73 441.72 129.11C441.31 131.83 440.77 134.53 440.58 137.26C440.37 139.96 440.52 142.7 440.52 146.36Z" fill="white" stroke="black"/>
<path d="M108.23 285.37C95.7999 283.58 84.22 279.81 73.02 274.81C64.86 271.17 57.0099 266.95 50.4699 260.75C48.0299 258.44 45.85 255.69 44.13 252.8C38.88 243.98 47.6799 231.6 55.8599 229.97C62.6899 228.61 68.91 230.35 74.9 233.31C77.99 234.84 80.87 236.79 83.77 238.5C83.52 233.27 82.9199 228.04 83.1199 222.84C83.2899 218.4 83.87 213.84 85.15 209.6C87.27 202.53 92.12 200.78 98.78 204.05C105.94 207.57 109.25 214.02 111.48 221.16C113.9 228.94 114.58 236.98 114.52 245.09C114.42 257.89 112.77 270.47 109.11 282.76C108.85 283.56 108.57 284.33 108.23 285.37Z" fill="white" stroke="black"/>
<path d="M163.77 147.68C164.61 141.54 165.38 135.78 166.19 130.04C168.79 111.5 171.45 92.9602 173.96 74.4102C174.28 72.0302 174.89 70.9802 177.53 70.9702C187.19 70.9402 196.84 70.4902 206.49 70.5802C209.66 70.6102 212.94 71.4602 215.98 72.4902C224.97 75.5402 228.64 82.3202 226.79 91.6802C225.56 97.9202 222.16 102.63 216.97 106.15C216.22 106.66 215.46 107.17 214.64 107.72C216.46 108.91 218.32 109.87 219.88 111.19C226.53 116.84 227.41 127.5 221.94 135.54C217.94 141.42 212.06 144.52 205.45 146.52C195.92 149.41 186.14 148.56 176.42 148.33C172.34 148.22 168.28 147.91 163.77 147.68ZM188.21 116.01C187.33 122.14 186.49 127.95 185.64 133.91C189.18 133.91 192.64 134.35 195.91 133.75C198.08 133.35 200.33 131.8 201.93 130.16C204.53 127.51 204.64 124.03 203.48 120.6C202.61 118.03 200.73 116.3 198.06 116.07C194.85 115.8 191.62 116.01 188.21 116.01ZM190.24 101.37C192.65 101.37 194.74 101.59 196.77 101.33C202.79 100.57 206.11 96.2902 205.49 90.3802C205.21 87.7202 203.91 85.6202 201.27 85.1302C198.48 84.6102 195.58 84.7002 192.66 84.5202C191.81 90.4302 191.04 95.7702 190.24 101.37Z" fill="white" stroke="black"/>
<path d="M476.54 106.9C478.3 104.18 479.66 101.81 481.27 99.6199C485.07 94.4699 490.19 92.1399 496.53 93.4399C503 94.7699 506.83 99.1399 508.21 105.4C510.61 116.3 506.99 136 491.88 144.38C486.43 147.41 480.56 148.68 474.37 148.59C473.13 148.57 471.9 148.59 470.49 148.59C469.65 154.72 468.76 160.64 468.03 166.58C467.26 172.85 467.32 172.85 460.9 172.85C456.83 172.85 452.76 172.85 448.28 172.85C448.74 169.31 449.13 166.05 449.58 162.8C452.59 141.37 455.63 119.95 458.58 98.5099C458.87 96.4199 459.61 95.2299 461.77 94.8599C464.63 94.3799 467.43 93.4599 470.3 93.1499C473.68 92.7799 475.56 94.2999 476 97.6599C476.38 100.53 476.35 103.46 476.54 106.9ZM471.75 135.37C476.33 135.72 480.2 135.88 483.39 132.87C487.98 128.53 490.54 116.45 488.04 110.64C486.45 106.92 481.98 106 479.31 109.06C478.04 110.51 477.01 112.4 476.54 114.25C474.81 121.16 473.36 128.14 471.75 135.37Z" fill="white" stroke="black"/>
<path d="M234.13 147.37C237.02 126.79 239.89 106.37 242.75 85.9401C243.35 81.6601 243.86 77.3601 244.61 73.1001C244.74 72.3301 245.78 71.1501 246.44 71.1301C255.34 70.8301 264.26 70.2301 273.13 70.6701C281.91 71.1001 289.87 74.2601 295.74 81.3101C299.89 86.2901 301.73 92.1901 302.19 98.5501C302.95 108.9 301.39 118.85 296.26 127.97C289.78 139.51 279.6 146.39 266.69 147.71C256.25 148.77 245.6 147.81 235.05 147.73C234.82 147.71 234.6 147.55 234.13 147.37ZM256.01 134.03C264.17 134.95 270.57 132.45 275.09 126.13C281.53 117.12 283.31 106.92 281.14 96.2101C279.52 88.1901 273.43 84.1301 265.21 84.5701C263.36 84.6701 262.7 85.3801 262.46 87.2301C261.47 95.1501 260.29 103.04 259.2 110.95C258.14 118.59 257.08 126.23 256.01 134.03Z" fill="white" stroke="black"/>
<path d="M138.3 738.65C131.2 739.63 124.38 740.58 117.56 741.52C117.49 741.39 117.42 741.26 117.35 741.12C122.66 736.64 127.97 732.16 133.37 727.6C130.32 721.31 127.33 715.13 124.34 708.95C124.47 708.82 124.61 708.69 124.74 708.56C130.54 712.17 136.33 715.77 142.36 719.52C147.35 714.72 152.36 709.9 157.37 705.08C157.52 705.14 157.67 705.21 157.82 705.27C156.98 708.74 156.14 712.22 155.29 715.69C154.66 718.28 154.12 720.89 153.33 723.43C152.84 724.99 153.08 725.77 154.62 726.54C159.52 729.01 164.33 731.67 169.17 734.26C169.86 734.63 170.53 735.04 171.87 735.82C166.08 736.24 161.06 736.61 156.04 736.97C155.71 736.99 155.37 737 155.04 737.01C150.25 737.22 150.29 737.22 149.52 741.82C148.7 746.74 147.82 751.65 146.94 756.57C146.86 757.04 146.63 757.48 146.33 758.32C143.57 751.6 140.97 745.22 138.3 738.65Z" fill="white" stroke="black"/>
<path d="M188.54 286.86C194.35 289.96 199.98 292.97 205.61 295.97C205.6 296.13 205.59 296.29 205.58 296.46C201.1 296.8 196.62 297.19 192.13 297.46C186.1 297.81 186.1 297.77 185.08 303.78C184.34 308.12 183.58 312.45 182.26 316.98C179.82 311.03 177.38 305.08 174.92 299.08C168.44 299.97 162.13 300.83 155.83 301.7C155.75 301.54 155.67 301.37 155.59 301.21C160.44 297.11 165.3 293.02 170.34 288.77C167.52 282.94 164.73 277.15 161.93 271.36C162.05 271.23 162.18 271.11 162.3 270.98C167.74 274.36 173.18 277.74 179.46 281.64C183.51 276.91 187.63 272.11 191.75 267.31C192.2 267.61 192.64 267.91 193.09 268.21C191.59 274.35 190.09 280.49 188.54 286.86Z" fill="white" stroke="black"/>
<path d="M706.84 93.6298C705.11 111.42 700.75 128.26 700.42 145.97C697.18 147.47 693.34 148.65 689.17 148.58C685.6 148.52 683.21 146.64 682.45 143.12C682.19 141.91 682.15 140.65 682.09 139.41C682.03 138.26 682.08 137.1 681.63 135.75C680.74 137.16 679.85 138.58 678.96 139.99C676.1 144.55 672.46 148.03 666.77 148.5C658.41 149.2 651.37 144.02 650.29 135.26C648.72 122.55 651.63 110.92 661.1 101.62C665.97 96.8397 671.97 93.8998 678.68 93.5898C688.04 93.1698 697.43 93.5798 706.84 93.6298ZM686.77 106.34C681.95 105.9 677.83 105.84 674.87 109.42C669.56 115.84 668.76 123.33 670.72 131.06C671.74 135.09 677.16 135.76 679.7 132.38C680.82 130.89 681.75 129.08 682.19 127.27C683.83 120.43 685.22 113.52 686.77 106.34Z" fill="white" stroke="black"/>
<path d="M559.26 94.6101C556.97 99.7501 554.71 104.8 552.49 109.8C552.22 109.87 552.05 109.98 551.91 109.94C544.87 108.13 541.41 109.65 539.48 116.71C537.51 123.9 536.42 131.34 535.02 138.69C534.48 141.53 534.17 144.42 533.74 147.38C527.43 147.38 521.3 147.38 514.83 147.38C515.44 142.7 516.01 138.12 516.63 133.55C518.24 121.67 519.93 109.81 521.46 97.9201C521.72 95.8901 522.42 94.7301 524.49 94.4001C526.62 94.0601 528.71 93.4101 530.85 93.1701C535.34 92.6601 538.19 94.9101 538.94 99.3901C539.13 100.5 538.87 101.68 540.55 102.01C542.38 102.37 542.57 101.01 543.16 99.9901C546.88 93.5301 551.71 91.6101 558.19 94.0201C558.5 94.1301 558.76 94.3301 559.26 94.6101Z" fill="white" stroke="black"/>
<path d="M566.74 94.29C572.95 94.29 579.09 94.29 585.42 94.29C583.83 111.45 579.72 128.25 579.38 145.98C575.5 147.89 570.82 149.12 565.81 148.41C562.39 147.93 560.36 145.51 560.54 141.63C560.77 136.99 561.45 132.36 562.06 127.74C563.48 117.01 564.99 106.3 566.46 95.58C566.52 95.19 566.63 94.8 566.74 94.29Z" fill="white" stroke="black"/>
<path d="M717.61 116.87C719.56 101.71 721.49 86.71 723.45 71.54C729.83 71.54 736.09 71.54 742.71 71.54C740.52 86.7 738.36 101.72 736.17 116.87C729.98 116.87 723.95 116.87 717.61 116.87Z" fill="white" stroke="black"/>
<path d="M724.95 126.92C731.48 126.92 735.19 130.41 735.14 136.49C735.07 144.16 730.67 148.56 723.05 148.59C716.39 148.61 712.91 145.34 712.92 139.07C712.93 131.41 717.38 126.91 724.95 126.92Z" fill="white" stroke="black"/>
<path d="M578.13 84.1399C572.13 84.1599 568.73 81.2299 568.66 75.9599C568.56 69.1199 572.98 64.5399 579.72 64.4999C585.7 64.4599 589.04 67.3999 589.09 72.7399C589.14 79.8199 585.02 84.1199 578.13 84.1399Z" fill="white" stroke="black"/>
<path d="M490.02 482.71C498.89 482.38 509.06 491.1 509.36 499.05C503.62 501.18 493 499.88 486.36 496.18C489.37 492.25 490.66 487.81 490.02 482.71Z" fill="white" stroke="black"/>
<path d="M189.13 130.81C189.61 127.32 190.06 123.8 190.62 120.3C190.7 119.8 191.32 119.02 191.73 119C193.79 118.9 195.92 118.72 197.92 119.12C201.2 119.78 202.22 124.87 199.86 128.08C197.81 130.88 193.47 132.01 189.13 130.81Z" fill="white" stroke="black"/>
<path d="M193.66 98.8302C194.18 95.0902 194.54 92.0401 195.09 89.0101C195.19 88.4601 196.03 87.7202 196.61 87.6402C199.87 87.2002 201.94 88.1702 202.44 90.1602C203.15 93.0202 201.72 96.4602 199.11 97.5202C197.55 98.1602 195.81 98.3402 193.66 98.8302Z" fill="white" stroke="black"/>
<path d="M475.35 132.19C476.74 126.3 478 120.41 479.57 114.61C480.09 112.69 480.72 109.89 483.61 110.47C486.26 111 485.79 113.72 485.86 115.66C486.02 120.1 485.35 124.43 483.1 128.37C481.33 131.47 478.94 132.74 475.35 132.19Z" fill="white" stroke="black"/>
<path d="M259.43 131.11C261.47 116.53 263.47 102.16 265.47 87.8601C271.29 87.0501 276.45 89.91 277.81 95.45C280.51 106.45 278.75 116.78 271.49 125.75C268.55 129.37 264.54 131.25 259.43 131.11Z" fill="white" stroke="black"/>
<path d="M683.33 109.2C681.8 115.63 680.47 121.7 678.85 127.69C678.39 129.4 677.7 131.78 675.18 131.37C672.63 130.96 673.01 128.52 672.9 126.71C672.65 122.52 673.09 118.39 674.95 114.54C676.47 111.38 678.67 109.08 683.33 109.2Z" fill="white" stroke="black"/>
<path d="M70.5 907C47 907 23.5 907 0 907C0 604.67 0 302.33 0 0C274.67 0 549.33 0 824 0C824 302.33 824 604.67 824 907C784.83 907 745.67 907 706.5 907C707.09 906.35 707.62 905.62 708.28 905.06C727.98 888.51 747.69 871.98 767.4 855.45C772.04 851.56 776.68 847.69 781.47 843.68C782.47 844.99 783.29 846.13 784.18 847.21C789.08 853.2 793.99 859.18 798.91 865.16C800.47 867.06 802.13 867.48 804.27 865.87C808.58 862.61 813.13 859.65 817.33 856.26C823.06 851.64 823.13 850.34 819.03 844.36C818.89 844.15 818.74 843.95 818.59 843.76C807.9 829.92 797.33 816 786.49 802.29C780.51 794.72 774.09 787.5 767.87 780.12C766.48 778.47 764.94 778.1 763.1 779.47C759.03 782.49 754.73 785.25 750.88 788.52C745.74 792.88 745.79 794.02 749.9 799.44C750.81 800.63 751.77 801.78 752.68 802.97C756.32 807.72 759.94 812.5 763.6 817.24C765.18 819.3 765.05 820.85 762.95 822.68C750.07 833.87 737.45 845.38 724.44 856.41C713.27 865.88 701.72 874.91 690.24 884.01C687.07 886.52 686.81 886.42 684.21 883.3C680.01 878.24 676.01 873.02 671.85 867.93C670.22 865.94 668.44 864.06 666.59 862.27C665.47 861.19 664.04 860.62 662.54 861.8C658.82 864.74 654.93 867.49 651.45 870.69C647.34 874.46 647.01 876.95 650.07 881.64C653.98 887.62 658.25 893.37 662.44 899.16C664.38 901.84 666.48 904.4 668.51 907.01C647.18 907.01 625.84 907.01 604.51 907.01C598.51 889.51 591.09 872.6 582.75 856.12C572.08 835.04 560.97 814.19 550.09 793.21C549.38 791.84 548.88 790.3 548.57 788.78C545.52 773.53 542.79 758.22 539.46 743.03C535.9 726.74 527.68 713.3 513.77 703.61C504.76 697.33 494.99 692.61 484.67 688.95C483.98 688.7 483.24 688.47 482.65 688.06C472.91 681.17 465.02 672.37 457.67 663.11C453.44 657.78 452.05 651.27 450.87 644.37C451.8 644.79 452.33 645.03 452.85 645.27C466.84 651.75 481.07 657.52 496.36 660.26C506.7 662.11 516.39 661.2 524.98 654.38C529.79 650.56 532.98 645.86 533.54 639.73C534.08 633.73 536.17 628.47 539.78 623.7C541.84 620.98 543.66 618.08 545.65 615.31C556.98 599.57 568.3 583.82 579.69 568.13C586.44 558.84 589.92 548.69 589.05 537.06C588.38 528.09 588.14 519.09 587.92 510.1C587.88 508.52 588.55 506.67 589.48 505.35C593.75 499.24 596.68 492.8 597.25 485.16C599.11 460.14 600.82 435.13 598 410.07C597.9 409.19 597.71 407.98 598.17 407.43C601.2 403.79 601.03 399.33 601.4 395.09C603.28 373.87 600.66 353.14 593.38 333.16C577.79 290.33 547.83 263.51 503.18 253.53C484.64 249.39 465.85 249.08 447.02 250.91C444.34 251.17 442.74 250.91 441.41 248.1C438.31 241.52 433.92 235.81 427.25 232.45C422.24 229.93 417.15 227.25 411.14 228.48C410.74 228.56 410.08 228.39 409.85 228.1C407.38 224.95 403.64 224.05 400.24 222.56C383.9 215.42 368.27 216.84 353.49 226.74C350.93 228.46 348.18 229.29 345.36 230.25C334.51 233.95 323.51 237.32 312.95 241.74C297.59 248.17 284.31 257.65 274.41 271.35C265.52 283.64 260.51 297.56 256.94 312.14C254.68 321.37 253.55 330.78 249.65 339.74C238.66 364.97 231.33 391.46 224.62 418.08C219.74 437.43 215.49 456.95 211.15 476.43C208.72 487.35 208.67 498.39 210.29 509.46C212.42 524.04 216.87 537.97 221.94 551.73C225.35 561 229.01 570.18 232.55 579.4C232.75 579.41 232.95 579.42 233.14 579.43C238.63 565.66 244.12 551.89 249.62 538.13C250.03 539.52 249.98 540.77 249.85 542C249.08 549.54 248.49 557.1 247.45 564.6C245.13 581.33 242.93 598.09 240.04 614.73C237.49 629.39 233.82 643.85 231.09 658.49C227.04 680.2 224.64 702.13 223.33 724.18C222 746.49 221.86 768.8 222.78 791.12C222.98 796.08 223.23 801.13 222.55 806C220.98 817.2 218.57 828.28 217.03 839.49C214.98 854.41 213.31 869.39 211.7 884.37C210.89 891.89 210.56 899.47 210.01 907.02C173.51 907.02 137.01 907.02 100.51 907.02C100.66 906.64 100.86 906.26 100.97 905.86C104.36 892.8 105.94 879.53 105.42 866.05C105.09 857.44 103.87 848.96 100.21 841.03C97.55 835.27 93.7 830.62 87.75 827.96C80.36 824.65 74.12 826.96 71.54 834.58C70.14 838.69 69.55 843.14 69.08 847.49C68.69 851.09 69 854.76 69 858.66C68.26 858.32 67.7 858.02 67.11 857.81C62.91 856.28 58.8 854.31 54.47 853.36C45.05 851.29 37.04 855.1 32.47 863.24C27.72 871.69 28.59 878.31 35.74 886.16C41.2 892.15 47.98 896.4 55.16 899.99C60.18 902.48 65.38 904.67 70.5 907ZM148.41 613.69C141.51 582.16 134.66 550.85 127.72 519.15C147.45 521.84 166.67 524.47 186.28 527.15C185.8 525.92 185.53 525.15 185.21 524.39C179.86 511.58 174.51 498.77 169.17 485.96C157.07 456.96 144.97 427.96 132.91 398.95C132.37 397.66 131.76 397.03 130.22 396.97C104.67 395.9 79.13 394.74 53.59 393.63C51.73 393.55 49.86 393.62 47.7 393.62C58.8 419.18 69.78 444.46 81 470.3C66.73 468.48 53.04 466.74 38.8 464.93C74.65 515.2 110.15 564.99 145.69 614.82C146.61 614.43 147.37 614.12 148.41 613.69ZM660.88 218.33C660.76 218.46 660.64 218.58 660.53 218.71C668.53 235.12 676.53 251.54 684.53 267.95C670.43 279.79 656.54 291.46 642.65 303.14C642.75 303.31 642.85 303.48 642.95 303.64C660.91 301.13 678.86 298.61 697.05 296.06C703.93 313.06 710.79 330 717.87 347.49C718.17 346.22 718.35 345.59 718.46 344.94C721.34 328.55 724.25 312.17 727.06 295.76C727.42 293.68 728.04 292.67 730.42 292.54C740.9 291.97 751.37 291.18 761.84 290.45C768.68 289.97 775.52 289.46 782.37 288.96C782.4 288.81 782.43 288.65 782.47 288.5C766.36 279.92 750.25 271.34 734.08 262.73C738.5 244.94 742.87 227.37 747.24 209.79C746.06 210.11 745.44 210.64 744.86 211.2C732.93 222.71 720.99 234.21 709.1 245.76C707.91 246.91 707.1 247.23 705.53 246.22C697.76 241.22 689.89 236.39 682.05 231.5C674.98 227.12 667.93 222.73 660.88 218.33ZM629.19 597.44C628.43 607.4 627.71 616.69 627 625.97C625.75 642.33 624.49 658.69 623.24 675.04C621.98 691.48 620.77 707.93 619.44 724.36C619.25 726.69 620.13 727.32 622.27 727.13C632.5 707.57 642.72 688.03 653.06 668.25C662.49 678.63 671.6 688.66 680.91 698.9C681.23 698.06 681.45 697.55 681.61 697.02C690.94 667.01 700.24 636.98 709.65 607C710.37 604.72 709.91 603.47 708.2 601.94C700.44 595 692.82 587.91 685.14 580.89C678.88 575.16 672.61 569.45 666.09 563.49C660.58 582.18 655.14 600.6 649.57 619.45C642.69 612.03 636.16 604.97 629.19 597.44ZM125.05 150.32C133.74 150.32 142.19 150.32 150.66 150.32C150.77 149.84 150.87 149.53 150.92 149.21C153.08 134.05 155.24 118.9 157.4 103.74C158.55 95.67 159.71 87.6 160.83 79.52C161.79 72.63 157.89 67.8 150.96 67.29C146.41 66.96 142.21 68.25 138.28 70.37C137.44 70.82 136.59 71.94 136.45 72.86C135.2 80.66 134.14 88.5 132.93 96.31C132.79 97.2 132.05 98.7 131.55 98.72C125.75 98.89 119.95 98.83 113.91 98.83C114.21 96.53 114.48 94.57 114.73 92.61C115.37 87.66 116.3 82.73 116.58 77.76C116.92 71.71 113.45 68.03 107.5 67.39C102.68 66.87 98.23 68.1 94.1 70.44C93.2 70.95 92.29 72.18 92.14 73.18C88.75 95.8 85.45 118.44 82.15 141.08C81.7 144.15 81.33 147.24 80.91 150.4C89.67 150.4 98.05 150.4 106.62 150.4C108.1 139.98 109.56 129.64 111.02 119.36C117.35 119.36 123.37 119.36 129.61 119.36C128.06 129.78 126.57 139.97 125.05 150.32ZM322.34 141.51C322.79 141.8 323.22 142.06 323.62 142.36C324.62 143.11 325.57 143.93 326.59 144.63C336.75 151.61 348 152.81 359.8 150.68C367.9 149.22 374.99 145.8 380.2 139.17C388.52 128.6 387.78 112.56 378.55 103.82C374.79 100.26 370.11 98.3 365.38 96.39C363.17 95.5 360.98 94.4 359.06 93C357.33 91.74 357.58 89.78 359.59 89.11C361.64 88.42 363.96 88.12 366.12 88.29C370.28 88.62 373.79 90.69 376.96 93.61C381.41 87.95 385.72 82.47 389.98 77.06C389.81 76.74 389.77 76.56 389.66 76.46C389.42 76.23 389.15 76.04 388.88 75.84C377.22 67.25 364.3 65.2 350.51 68.95C339.88 71.84 333.31 78.88 331.74 89.92C330.07 101.68 333.46 111.57 344.76 117.7C347.38 119.12 350.21 120.16 352.92 121.41C354.28 122.03 355.8 122.5 356.88 123.46C357.83 124.31 358.85 125.79 358.75 126.89C358.66 127.97 357.29 129.06 356.28 129.89C355.7 130.36 354.72 130.43 353.91 130.51C345.4 131.42 337.71 129.59 331.24 123.42C328.3 129.45 325.4 135.3 322.34 141.51ZM619.47 123.36C619.16 123.29 618.84 123.22 618.53 123.15C618.53 116.16 618.58 109.16 618.51 102.17C618.44 95.65 614.9 91.53 608.53 90.43C603.1 89.49 597.96 90.78 592.88 92.53C591.4 93.04 591.13 93.79 591.36 95.31C593.34 108.56 595.21 121.83 597.14 135.09C597.92 140.44 598.22 146.05 604.02 148.99C599.94 154.02 595.16 157.63 589.23 159.99C592.43 166.01 595.49 171.77 598.53 177.5C605.32 174.91 612.31 169.72 618.23 162.9C632.05 146.99 641.16 128.51 647.5 108.59C649.05 103.73 650 98.68 651.28 93.48C642.98 92.24 635.29 91.09 627.84 89.98C624.99 101.33 622.23 112.34 619.47 123.36ZM715.12 497.61C716.66 497.47 717.58 497.49 718.46 497.29C726.07 495.55 733.79 494.18 741.25 491.92C755.88 487.47 769.84 481.41 782.03 471.95C784.96 469.67 787.73 467.04 790.08 464.16C800.06 451.95 794.13 433.82 778.85 429.55C771.06 427.37 763.68 429.16 756.49 432.15C754.1 433.14 751.81 434.37 749.5 435.48C749.5 430.57 749.67 425.91 749.46 421.27C749.21 415.68 748.33 410.17 745.58 405.15C742.63 399.77 737.96 397.57 732 398.89C725.11 400.42 720.04 404.55 716.27 410.33C710.85 418.65 708.95 428.08 708.02 437.77C706.75 450.96 707.71 464.07 710.16 477.04C711.46 483.95 713.44 490.72 715.12 497.61ZM444.67 147.8C444.16 144.37 443.24 141.78 443.5 139.31C444.34 131.46 445.6 123.65 446.72 115.83C447.47 110.56 448.46 105.32 448.98 100.03C449.6 93.76 446.02 89.8 439.72 90.2C435.63 90.46 431.62 91.86 427.56 92.65C425.49 93.05 424.84 94.31 424.58 96.23C423.61 103.23 422.69 110.25 421.42 117.2C420.66 121.34 419.44 125.42 418.09 129.41C417.78 130.31 416.06 130.73 414.98 131.37C414.6 130.39 413.82 129.36 413.92 128.44C414.42 123.81 415.12 119.21 415.8 114.61C416.5 109.84 417.41 105.09 417.95 100.3C418.68 93.91 415.12 89.81 408.73 90.22C404.56 90.48 400.46 91.86 396.33 92.71C394.43 93.1 393.73 94.23 393.49 96.15C392.5 103.82 391.24 111.46 390.27 119.13C389.54 124.9 388.67 130.7 388.64 136.49C388.6 144.79 393.11 150.29 400.24 151.39C406.5 152.36 412.15 150.91 416.75 146.29C417.56 145.48 418.34 144.64 419.17 143.77C421.94 150.38 425.32 152.58 432.25 151.39C436.68 150.59 440.96 148.89 444.67 147.8ZM79.65 232.42C79.88 232.37 79.78 232.43 79.73 232.4C79.07 232.05 78.42 231.68 77.75 231.34C70.79 227.86 63.62 225.4 55.66 226.99C41.93 229.73 35.17 246.81 43.78 257.77C46.81 261.63 50.67 265.03 54.68 267.91C66.59 276.43 80.06 281.71 94.12 285.48C99.39 286.89 104.79 287.79 110.12 288.92C110.53 287.85 110.77 287.33 110.95 286.78C116.06 271.18 118.04 255.14 117.35 238.78C117.03 231.1 115.9 223.51 112.93 216.35C109.93 209.13 105.57 203.13 97.78 200.41C91.31 198.15 86.18 200.11 83.25 206.25C82.22 208.4 81.31 210.76 81.07 213.1C80.39 219.43 80.11 225.82 79.65 232.42ZM220.64 107.77C222.79 105.1 225.1 102.77 226.78 100.05C231.71 92.05 231.27 81.23 225.89 75.25C221.91 70.83 216.59 68.83 210.88 68.05C198.33 66.32 185.77 67.69 173.23 68.43C172.63 68.47 171.72 69.58 171.6 70.3C170.9 74.48 170.4 78.7 169.81 82.91C166.73 104.75 163.64 126.59 160.57 148.44C160.48 149.05 160.56 149.69 160.56 150.86C172.26 151.06 183.74 151.56 195.21 151.33C202.67 151.18 209.78 148.94 216.28 145.01C230.5 136.39 232.8 116.44 220.64 107.77ZM473.06 151.88C473.54 151.73 473.7 151.64 473.85 151.64C474.43 151.61 475.01 151.6 475.6 151.59C482.84 151.49 489.54 149.63 495.61 145.6C509.89 136.11 513.57 116.78 511.26 105.19C509.82 97.97 505.51 92.75 498.27 90.78C491.16 88.84 484.96 90.86 480 96.4C479.79 96.63 479.51 96.81 479.24 97.03C476.5 90.65 474.41 89.36 467.64 90.48C464.3 91.03 461.03 92.09 457.8 93.13C457.08 93.36 456.25 94.42 456.14 95.19C452.73 118.9 449.4 142.62 446.07 166.34C445.64 169.42 445.27 172.52 444.84 175.86C452.99 175.86 460.72 175.9 468.45 175.78C468.99 175.77 469.88 174.62 469.99 173.9C471.07 166.56 472.04 159.23 473.06 151.88ZM230.73 150.11C231.35 150.3 231.66 150.47 231.97 150.48C242.11 150.82 252.29 151.8 262.4 151.3C277.03 150.58 289.22 144.41 297.43 131.8C304.09 121.57 306.26 110.11 305.13 98.13C303.55 81.42 294.04 71.19 277.65 68.15C268.73 66.5 259.72 67.37 250.75 67.79C247.88 67.92 245.02 68.24 242.18 68.47C238.32 95.93 234.53 123 230.73 150.11ZM117.45 700.45C117.31 700.58 117.18 700.7 117.04 700.83C121.24 709.47 125.43 718.11 129.66 726.82C122.14 733.15 114.78 739.35 107.42 745.56C107.52 745.69 107.61 745.82 107.71 745.95C117.25 744.62 126.78 743.28 136.39 741.94C140.08 751.02 143.7 759.91 147.32 768.81C149.38 759.85 150.98 751.1 152.45 742.32C152.72 740.7 153.26 740.07 154.94 739.99C160.51 739.72 166.08 739.3 171.64 738.91C175.02 738.67 178.4 738.38 182.34 738.07C181.42 737.5 181.03 737.22 180.61 736.99C173.13 732.99 165.67 728.96 158.14 725.04C156.68 724.28 156.33 723.56 156.78 721.94C158.23 716.65 159.48 711.3 160.8 705.97C161.63 702.62 162.43 699.27 163.42 695.18C162.36 696.14 161.87 696.57 161.4 697.02C155.52 702.67 149.58 708.28 143.79 714.03C142.41 715.41 141.49 715.55 139.85 714.49C132.43 709.74 124.93 705.12 117.45 700.45ZM178.34 277.42C170.4 272.47 162.67 267.65 154.36 262.48C154.82 263.54 154.98 263.98 155.19 264.4C158.67 271.58 162.11 278.79 165.69 285.92C166.47 287.47 166.39 288.28 164.99 289.41C158.99 294.3 153.1 299.33 147.18 304.32C146.65 304.77 146.17 305.27 145.46 305.95C146.42 305.95 147.01 306.02 147.57 305.94C155.15 304.88 162.74 303.86 170.3 302.67C172.38 302.34 173.34 302.79 174.13 304.86C176.88 312.08 179.88 319.21 182.8 326.37C183.02 326.91 183.34 327.41 183.82 328.32C185.4 319.45 186.94 311.11 188.33 302.74C188.61 301.07 189.26 300.57 190.88 300.49C196.53 300.21 202.18 299.79 207.83 299.39C210.61 299.19 213.39 298.94 216.16 298.71C216.18 298.55 216.2 298.39 216.23 298.23C208.14 293.91 200.05 289.58 192 285.28C194.25 276.19 196.42 267.41 198.6 258.62C198.43 258.55 198.26 258.48 198.09 258.4C191.56 264.69 185.04 270.97 178.34 277.42ZM705.45 147.67C705.46 147.35 705.47 147.03 705.48 146.72C702.84 144.02 703.2 140.69 703.62 137.48C704.72 129.24 706.02 121.03 707.24 112.8C708.28 105.75 709.32 98.7 710.38 91.57C709.69 91.41 709.22 91.23 708.74 91.21C699.85 90.84 690.95 90.11 682.06 90.23C672.66 90.35 664.29 93.7 657.76 100.73C648.64 110.54 645.81 122.47 647.25 135.39C648.06 142.65 652.19 148.14 659.28 150.61C665.82 152.89 671.92 151.62 677.18 146.98C677.95 146.3 678.55 145.41 679.53 144.28C681.79 150.51 686.2 152.4 691.65 151.42C696.32 150.58 700.85 148.94 705.45 147.67ZM536.26 150.4C537.54 142.26 538.67 134.35 540.07 126.49C540.69 122.99 541.59 119.49 542.83 116.15C544.44 111.79 547.9 110.9 551.85 113.44C552.39 113.79 552.91 114.15 553.62 114.63C556.88 107.32 560.04 100.24 563.24 93.07C559.6 90.91 555.96 89.94 552.05 90.11C547.45 90.31 544.26 92.97 541.53 96.86C539.45 91.87 535.87 89.58 530.96 90.17C527.53 90.58 524.18 91.7 520.8 92.51C519.49 92.82 519.08 93.64 518.9 95C517.01 109.19 515.02 123.36 513.08 137.54C512.5 141.78 511.97 146.03 511.4 150.4C519.86 150.4 528 150.4 536.26 150.4ZM584.58 146.9C581.65 143.83 582.19 140.31 582.63 136.96C584.1 125.83 585.76 114.72 587.32 103.61C587.89 99.54 588.42 95.46 588.98 91.26C580.51 91.26 572.37 91.26 564.17 91.26C563.99 92.06 563.77 92.78 563.67 93.5C562.1 105.04 560.52 116.58 559.02 128.12C558.42 132.73 557.65 137.36 557.57 141.99C557.47 147.69 561.27 151.22 566.94 151.55C573.24 151.93 578.84 149.78 584.58 146.9ZM746.2 68.35C738.22 68.35 730.74 68.43 723.27 68.3C721.17 68.27 720.68 69.03 720.44 70.98C719.1 82.12 717.6 93.24 716.17 104.37C715.51 109.52 714.89 114.68 714.24 119.86C722.6 119.86 730.62 119.86 738.76 119.86C741.24 102.71 743.7 85.72 746.2 68.35ZM722.88 151.58C732.29 151.62 738.15 145.77 738.14 136.32C738.14 128.66 733.11 123.93 724.99 123.91C715.81 123.9 709.99 129.66 709.92 138.82C709.86 146.87 714.61 151.55 722.88 151.58ZM578.05 87.14C589.3 87.21 593.59 77.74 591.65 69.37C590.38 63.9 585.16 60.98 578.31 61.54C570.57 62.17 565.28 68.37 565.66 76.37C565.98 83.14 570.52 87.08 578.05 87.14Z" fill="white" stroke="black"/>
</g>
</svg>
